%TF.GenerationSoftware,KiCad,Pcbnew,9.0.7*%
%TF.CreationDate,2026-03-10T22:19:55+05:30*%
%TF.ProjectId,Adjustable Power Supply PCB,41646a75-7374-4616-926c-6520506f7765,rev?*%
%TF.SameCoordinates,Original*%
%TF.FileFunction,Copper,L1,Top*%
%TF.FilePolarity,Positive*%
%FSLAX46Y46*%
G04 Gerber Fmt 4.6, Leading zero omitted, Abs format (unit mm)*
G04 Created by KiCad (PCBNEW 9.0.7) date 2026-03-10 22:19:55*
%MOMM*%
%LPD*%
G01*
G04 APERTURE LIST*
G04 Aperture macros list*
%AMRoundRect*
0 Rectangle with rounded corners*
0 $1 Rounding radius*
0 $2 $3 $4 $5 $6 $7 $8 $9 X,Y pos of 4 corners*
0 Add a 4 corners polygon primitive as box body*
4,1,4,$2,$3,$4,$5,$6,$7,$8,$9,$2,$3,0*
0 Add four circle primitives for the rounded corners*
1,1,$1+$1,$2,$3*
1,1,$1+$1,$4,$5*
1,1,$1+$1,$6,$7*
1,1,$1+$1,$8,$9*
0 Add four rect primitives between the rounded corners*
20,1,$1+$1,$2,$3,$4,$5,0*
20,1,$1+$1,$4,$5,$6,$7,0*
20,1,$1+$1,$6,$7,$8,$9,0*
20,1,$1+$1,$8,$9,$2,$3,0*%
G04 Aperture macros list end*
%ADD10C,0.200000*%
%TA.AperFunction,NonConductor*%
%ADD11C,0.200000*%
%TD*%
%TA.AperFunction,ComponentPad*%
%ADD12RoundRect,0.249999X0.850001X0.850001X-0.850001X0.850001X-0.850001X-0.850001X0.850001X-0.850001X0*%
%TD*%
%TA.AperFunction,ComponentPad*%
%ADD13C,2.200000*%
%TD*%
%TA.AperFunction,ComponentPad*%
%ADD14C,1.600000*%
%TD*%
%TA.AperFunction,ComponentPad*%
%ADD15R,1.700000X1.700000*%
%TD*%
%TA.AperFunction,ComponentPad*%
%ADD16C,1.700000*%
%TD*%
%TA.AperFunction,ComponentPad*%
%ADD17R,2.000000X1.905000*%
%TD*%
%TA.AperFunction,ComponentPad*%
%ADD18O,2.000000X1.905000*%
%TD*%
%TA.AperFunction,Conductor*%
%ADD19C,0.200000*%
%TD*%
G04 APERTURE END LIST*
D10*
D11*
X130845863Y-59556028D02*
X130345863Y-58841742D01*
X129988720Y-59556028D02*
X129988720Y-58056028D01*
X129988720Y-58056028D02*
X130560149Y-58056028D01*
X130560149Y-58056028D02*
X130703006Y-58127457D01*
X130703006Y-58127457D02*
X130774435Y-58198885D01*
X130774435Y-58198885D02*
X130845863Y-58341742D01*
X130845863Y-58341742D02*
X130845863Y-58556028D01*
X130845863Y-58556028D02*
X130774435Y-58698885D01*
X130774435Y-58698885D02*
X130703006Y-58770314D01*
X130703006Y-58770314D02*
X130560149Y-58841742D01*
X130560149Y-58841742D02*
X129988720Y-58841742D01*
X132060149Y-59484600D02*
X131917292Y-59556028D01*
X131917292Y-59556028D02*
X131631578Y-59556028D01*
X131631578Y-59556028D02*
X131488720Y-59484600D01*
X131488720Y-59484600D02*
X131417292Y-59341742D01*
X131417292Y-59341742D02*
X131417292Y-58770314D01*
X131417292Y-58770314D02*
X131488720Y-58627457D01*
X131488720Y-58627457D02*
X131631578Y-58556028D01*
X131631578Y-58556028D02*
X131917292Y-58556028D01*
X131917292Y-58556028D02*
X132060149Y-58627457D01*
X132060149Y-58627457D02*
X132131578Y-58770314D01*
X132131578Y-58770314D02*
X132131578Y-58913171D01*
X132131578Y-58913171D02*
X131417292Y-59056028D01*
X132631577Y-58556028D02*
X132988720Y-59556028D01*
X132988720Y-59556028D02*
X133345863Y-58556028D01*
X133917291Y-59413171D02*
X133988720Y-59484600D01*
X133988720Y-59484600D02*
X133917291Y-59556028D01*
X133917291Y-59556028D02*
X133845863Y-59484600D01*
X133845863Y-59484600D02*
X133917291Y-59413171D01*
X133917291Y-59413171D02*
X133917291Y-59556028D01*
X135274435Y-58556028D02*
X135274435Y-59556028D01*
X134917292Y-57984600D02*
X134560149Y-59056028D01*
X134560149Y-59056028D02*
X135488720Y-59056028D01*
X136060148Y-59413171D02*
X136131577Y-59484600D01*
X136131577Y-59484600D02*
X136060148Y-59556028D01*
X136060148Y-59556028D02*
X135988720Y-59484600D01*
X135988720Y-59484600D02*
X136060148Y-59413171D01*
X136060148Y-59413171D02*
X136060148Y-59556028D01*
X137060149Y-58056028D02*
X137203006Y-58056028D01*
X137203006Y-58056028D02*
X137345863Y-58127457D01*
X137345863Y-58127457D02*
X137417292Y-58198885D01*
X137417292Y-58198885D02*
X137488720Y-58341742D01*
X137488720Y-58341742D02*
X137560149Y-58627457D01*
X137560149Y-58627457D02*
X137560149Y-58984600D01*
X137560149Y-58984600D02*
X137488720Y-59270314D01*
X137488720Y-59270314D02*
X137417292Y-59413171D01*
X137417292Y-59413171D02*
X137345863Y-59484600D01*
X137345863Y-59484600D02*
X137203006Y-59556028D01*
X137203006Y-59556028D02*
X137060149Y-59556028D01*
X137060149Y-59556028D02*
X136917292Y-59484600D01*
X136917292Y-59484600D02*
X136845863Y-59413171D01*
X136845863Y-59413171D02*
X136774434Y-59270314D01*
X136774434Y-59270314D02*
X136703006Y-58984600D01*
X136703006Y-58984600D02*
X136703006Y-58627457D01*
X136703006Y-58627457D02*
X136774434Y-58341742D01*
X136774434Y-58341742D02*
X136845863Y-58198885D01*
X136845863Y-58198885D02*
X136917292Y-58127457D01*
X136917292Y-58127457D02*
X137060149Y-58056028D01*
D12*
%TO.P,D1,1,K*%
%TO.N,/I*%
X141330000Y-64500000D03*
D13*
%TO.P,D1,2,A*%
%TO.N,/OUT*%
X131170000Y-64500000D03*
%TD*%
D14*
%TO.P,R1,1*%
%TO.N,/OUT*%
X130940000Y-82500000D03*
%TO.P,R1,2*%
%TO.N,/1*%
X138560000Y-82500000D03*
%TD*%
%TO.P,C3,1*%
%TO.N,/1*%
X151000000Y-76000000D03*
%TO.P,C3,2*%
%TO.N,/GND*%
X151000000Y-73500000D03*
%TD*%
%TO.P,C1,1*%
%TO.N,/I*%
X143500000Y-82750000D03*
%TO.P,C1,2*%
%TO.N,/GND*%
X146000000Y-82750000D03*
%TD*%
D12*
%TO.P,D2,1,K*%
%TO.N,/OUT*%
X159160000Y-64250000D03*
D13*
%TO.P,D2,2,A*%
%TO.N,/1*%
X149000000Y-64250000D03*
%TD*%
D15*
%TO.P,J2,1,Pin_1*%
%TO.N,/GND*%
X156200000Y-69350000D03*
D16*
%TO.P,J2,2,Pin_2*%
%TO.N,/OUT*%
X158740000Y-69350000D03*
%TD*%
D17*
%TO.P,U1,1,ADJ*%
%TO.N,/1*%
X144500000Y-76000000D03*
D18*
%TO.P,U1,2,VO*%
%TO.N,/OUT*%
X144500000Y-73460000D03*
%TO.P,U1,3,VI*%
%TO.N,/I*%
X144500000Y-70920000D03*
%TD*%
D14*
%TO.P,R2,1*%
%TO.N,/1*%
X152190000Y-82500000D03*
%TO.P,R2,2*%
%TO.N,/GND*%
X159810000Y-82500000D03*
%TD*%
D15*
%TO.P,J1,1,Pin_1*%
%TO.N,/GND*%
X131700000Y-69600000D03*
D16*
%TO.P,J1,2,Pin_2*%
%TO.N,/I*%
X134240000Y-69600000D03*
%TD*%
D14*
%TO.P,C2,1*%
%TO.N,/OUT*%
X144000000Y-60750000D03*
%TO.P,C2,2*%
%TO.N,/GND*%
X146500000Y-60750000D03*
%TD*%
D19*
%TO.N,/1*%
X151000000Y-76000000D02*
X151000000Y-81310000D01*
%TO.N,/OUT*%
X135460000Y-82500000D02*
X144500000Y-73460000D01*
X157589000Y-70501000D02*
X158740000Y-69350000D01*
%TO.N,/1*%
X138560000Y-82500000D02*
X144500000Y-76560000D01*
%TO.N,/GND*%
X151000000Y-73690000D02*
X151000000Y-73500000D01*
%TO.N,/OUT*%
X130940000Y-82500000D02*
X135460000Y-82500000D01*
X147459000Y-70501000D02*
X157589000Y-70501000D01*
%TO.N,/1*%
X151000000Y-81310000D02*
X152190000Y-82500000D01*
%TO.N,/OUT*%
X159160000Y-64250000D02*
X159160000Y-68930000D01*
X144500000Y-73460000D02*
X147459000Y-70501000D01*
%TO.N,/1*%
X144500000Y-76560000D02*
X144500000Y-76000000D01*
%TO.N,/OUT*%
X159160000Y-68930000D02*
X158740000Y-69350000D01*
%TO.N,/GND*%
X156200000Y-64723840D02*
X156200000Y-69350000D01*
X160561000Y-63164840D02*
X160245160Y-62849000D01*
X160245160Y-62849000D02*
X158074840Y-62849000D01*
X151000000Y-73500000D02*
X156217760Y-73500000D01*
X158074840Y-62849000D02*
X156200000Y-64723840D01*
X156217760Y-73500000D02*
X160561000Y-69156760D01*
X160561000Y-69156760D02*
X160561000Y-63164840D01*
%TO.N,/I*%
X141330000Y-67750000D02*
X144500000Y-70920000D01*
%TO.N,/GND*%
X146500000Y-60750000D02*
X147600000Y-60750000D01*
X147600000Y-60750000D02*
X156200000Y-69350000D01*
%TO.N,/I*%
X139340000Y-64500000D02*
X141330000Y-64500000D01*
X141330000Y-64500000D02*
X141330000Y-67750000D01*
%TO.N,/GND*%
X139449000Y-61851000D02*
X145399000Y-61851000D01*
X145399000Y-61851000D02*
X146500000Y-60750000D01*
%TO.N,/OUT*%
X134920000Y-60750000D02*
X144000000Y-60750000D01*
%TO.N,/GND*%
X131700000Y-69600000D02*
X139449000Y-61851000D01*
%TO.N,/I*%
X134240000Y-69600000D02*
X139340000Y-64500000D01*
%TO.N,/OUT*%
X131170000Y-64500000D02*
X134920000Y-60750000D01*
%TO.N,/GND*%
X146000000Y-78500000D02*
X146000000Y-82750000D01*
X151000000Y-73500000D02*
X146000000Y-78500000D01*
X159810000Y-82500000D02*
X151000000Y-73690000D01*
%TO.N,/I*%
X130483950Y-83601000D02*
X129839000Y-82956050D01*
X140962950Y-70920000D02*
X144500000Y-70920000D01*
X129839000Y-82043950D02*
X140962950Y-70920000D01*
X143500000Y-82750000D02*
X142649000Y-83601000D01*
X129839000Y-82956050D02*
X129839000Y-82043950D01*
X142649000Y-83601000D02*
X130483950Y-83601000D01*
%TD*%
M02*
