%TF.GenerationSoftware,KiCad,Pcbnew,9.0.7*%
%TF.CreationDate,2026-03-10T22:19:55+05:30*%
%TF.ProjectId,Adjustable Power Supply PCB,41646a75-7374-4616-926c-6520506f7765,rev?*%
%TF.SameCoordinates,Original*%
%TF.FileFunction,Legend,Top*%
%TF.FilePolarity,Positive*%
%FSLAX46Y46*%
G04 Gerber Fmt 4.6, Leading zero omitted, Abs format (unit mm)*
G04 Created by KiCad (PCBNEW 9.0.7) date 2026-03-10 22:19:55*
%MOMM*%
%LPD*%
G01*
G04 APERTURE LIST*
%ADD10C,0.150000*%
%ADD11C,0.000000*%
%ADD12C,0.120000*%
G04 APERTURE END LIST*
D10*
X135511905Y-67424819D02*
X135511905Y-66424819D01*
X135511905Y-66424819D02*
X135750000Y-66424819D01*
X135750000Y-66424819D02*
X135892857Y-66472438D01*
X135892857Y-66472438D02*
X135988095Y-66567676D01*
X135988095Y-66567676D02*
X136035714Y-66662914D01*
X136035714Y-66662914D02*
X136083333Y-66853390D01*
X136083333Y-66853390D02*
X136083333Y-66996247D01*
X136083333Y-66996247D02*
X136035714Y-67186723D01*
X136035714Y-67186723D02*
X135988095Y-67281961D01*
X135988095Y-67281961D02*
X135892857Y-67377200D01*
X135892857Y-67377200D02*
X135750000Y-67424819D01*
X135750000Y-67424819D02*
X135511905Y-67424819D01*
X137035714Y-67424819D02*
X136464286Y-67424819D01*
X136750000Y-67424819D02*
X136750000Y-66424819D01*
X136750000Y-66424819D02*
X136654762Y-66567676D01*
X136654762Y-66567676D02*
X136559524Y-66662914D01*
X136559524Y-66662914D02*
X136464286Y-66710533D01*
X141068095Y-67054819D02*
X141068095Y-66054819D01*
X141639523Y-67054819D02*
X141210952Y-66483390D01*
X141639523Y-66054819D02*
X141068095Y-66626247D01*
X138083333Y-80704819D02*
X137750000Y-80228628D01*
X137511905Y-80704819D02*
X137511905Y-79704819D01*
X137511905Y-79704819D02*
X137892857Y-79704819D01*
X137892857Y-79704819D02*
X137988095Y-79752438D01*
X137988095Y-79752438D02*
X138035714Y-79800057D01*
X138035714Y-79800057D02*
X138083333Y-79895295D01*
X138083333Y-79895295D02*
X138083333Y-80038152D01*
X138083333Y-80038152D02*
X138035714Y-80133390D01*
X138035714Y-80133390D02*
X137988095Y-80181009D01*
X137988095Y-80181009D02*
X137892857Y-80228628D01*
X137892857Y-80228628D02*
X137511905Y-80228628D01*
X139035714Y-80704819D02*
X138464286Y-80704819D01*
X138750000Y-80704819D02*
X138750000Y-79704819D01*
X138750000Y-79704819D02*
X138654762Y-79847676D01*
X138654762Y-79847676D02*
X138559524Y-79942914D01*
X138559524Y-79942914D02*
X138464286Y-79990533D01*
X148859580Y-74916666D02*
X148907200Y-74964285D01*
X148907200Y-74964285D02*
X148954819Y-75107142D01*
X148954819Y-75107142D02*
X148954819Y-75202380D01*
X148954819Y-75202380D02*
X148907200Y-75345237D01*
X148907200Y-75345237D02*
X148811961Y-75440475D01*
X148811961Y-75440475D02*
X148716723Y-75488094D01*
X148716723Y-75488094D02*
X148526247Y-75535713D01*
X148526247Y-75535713D02*
X148383390Y-75535713D01*
X148383390Y-75535713D02*
X148192914Y-75488094D01*
X148192914Y-75488094D02*
X148097676Y-75440475D01*
X148097676Y-75440475D02*
X148002438Y-75345237D01*
X148002438Y-75345237D02*
X147954819Y-75202380D01*
X147954819Y-75202380D02*
X147954819Y-75107142D01*
X147954819Y-75107142D02*
X148002438Y-74964285D01*
X148002438Y-74964285D02*
X148050057Y-74916666D01*
X147954819Y-74583332D02*
X147954819Y-73964285D01*
X147954819Y-73964285D02*
X148335771Y-74297618D01*
X148335771Y-74297618D02*
X148335771Y-74154761D01*
X148335771Y-74154761D02*
X148383390Y-74059523D01*
X148383390Y-74059523D02*
X148431009Y-74011904D01*
X148431009Y-74011904D02*
X148526247Y-73964285D01*
X148526247Y-73964285D02*
X148764342Y-73964285D01*
X148764342Y-73964285D02*
X148859580Y-74011904D01*
X148859580Y-74011904D02*
X148907200Y-74059523D01*
X148907200Y-74059523D02*
X148954819Y-74154761D01*
X148954819Y-74154761D02*
X148954819Y-74440475D01*
X148954819Y-74440475D02*
X148907200Y-74535713D01*
X148907200Y-74535713D02*
X148859580Y-74583332D01*
X144583333Y-80609580D02*
X144535714Y-80657200D01*
X144535714Y-80657200D02*
X144392857Y-80704819D01*
X144392857Y-80704819D02*
X144297619Y-80704819D01*
X144297619Y-80704819D02*
X144154762Y-80657200D01*
X144154762Y-80657200D02*
X144059524Y-80561961D01*
X144059524Y-80561961D02*
X144011905Y-80466723D01*
X144011905Y-80466723D02*
X143964286Y-80276247D01*
X143964286Y-80276247D02*
X143964286Y-80133390D01*
X143964286Y-80133390D02*
X144011905Y-79942914D01*
X144011905Y-79942914D02*
X144059524Y-79847676D01*
X144059524Y-79847676D02*
X144154762Y-79752438D01*
X144154762Y-79752438D02*
X144297619Y-79704819D01*
X144297619Y-79704819D02*
X144392857Y-79704819D01*
X144392857Y-79704819D02*
X144535714Y-79752438D01*
X144535714Y-79752438D02*
X144583333Y-79800057D01*
X145535714Y-80704819D02*
X144964286Y-80704819D01*
X145250000Y-80704819D02*
X145250000Y-79704819D01*
X145250000Y-79704819D02*
X145154762Y-79847676D01*
X145154762Y-79847676D02*
X145059524Y-79942914D01*
X145059524Y-79942914D02*
X144964286Y-79990533D01*
X153341905Y-67174819D02*
X153341905Y-66174819D01*
X153341905Y-66174819D02*
X153580000Y-66174819D01*
X153580000Y-66174819D02*
X153722857Y-66222438D01*
X153722857Y-66222438D02*
X153818095Y-66317676D01*
X153818095Y-66317676D02*
X153865714Y-66412914D01*
X153865714Y-66412914D02*
X153913333Y-66603390D01*
X153913333Y-66603390D02*
X153913333Y-66746247D01*
X153913333Y-66746247D02*
X153865714Y-66936723D01*
X153865714Y-66936723D02*
X153818095Y-67031961D01*
X153818095Y-67031961D02*
X153722857Y-67127200D01*
X153722857Y-67127200D02*
X153580000Y-67174819D01*
X153580000Y-67174819D02*
X153341905Y-67174819D01*
X154294286Y-66270057D02*
X154341905Y-66222438D01*
X154341905Y-66222438D02*
X154437143Y-66174819D01*
X154437143Y-66174819D02*
X154675238Y-66174819D01*
X154675238Y-66174819D02*
X154770476Y-66222438D01*
X154770476Y-66222438D02*
X154818095Y-66270057D01*
X154818095Y-66270057D02*
X154865714Y-66365295D01*
X154865714Y-66365295D02*
X154865714Y-66460533D01*
X154865714Y-66460533D02*
X154818095Y-66603390D01*
X154818095Y-66603390D02*
X154246667Y-67174819D01*
X154246667Y-67174819D02*
X154865714Y-67174819D01*
X158898095Y-66804819D02*
X158898095Y-65804819D01*
X159469523Y-66804819D02*
X159040952Y-66233390D01*
X159469523Y-65804819D02*
X158898095Y-66376247D01*
X152666666Y-68954819D02*
X152666666Y-69669104D01*
X152666666Y-69669104D02*
X152619047Y-69811961D01*
X152619047Y-69811961D02*
X152523809Y-69907200D01*
X152523809Y-69907200D02*
X152380952Y-69954819D01*
X152380952Y-69954819D02*
X152285714Y-69954819D01*
X153095238Y-69050057D02*
X153142857Y-69002438D01*
X153142857Y-69002438D02*
X153238095Y-68954819D01*
X153238095Y-68954819D02*
X153476190Y-68954819D01*
X153476190Y-68954819D02*
X153571428Y-69002438D01*
X153571428Y-69002438D02*
X153619047Y-69050057D01*
X153619047Y-69050057D02*
X153666666Y-69145295D01*
X153666666Y-69145295D02*
X153666666Y-69240533D01*
X153666666Y-69240533D02*
X153619047Y-69383390D01*
X153619047Y-69383390D02*
X153047619Y-69954819D01*
X153047619Y-69954819D02*
X153666666Y-69954819D01*
X139854819Y-74221904D02*
X140664342Y-74221904D01*
X140664342Y-74221904D02*
X140759580Y-74174285D01*
X140759580Y-74174285D02*
X140807200Y-74126666D01*
X140807200Y-74126666D02*
X140854819Y-74031428D01*
X140854819Y-74031428D02*
X140854819Y-73840952D01*
X140854819Y-73840952D02*
X140807200Y-73745714D01*
X140807200Y-73745714D02*
X140759580Y-73698095D01*
X140759580Y-73698095D02*
X140664342Y-73650476D01*
X140664342Y-73650476D02*
X139854819Y-73650476D01*
X140854819Y-72650476D02*
X140854819Y-73221904D01*
X140854819Y-72936190D02*
X139854819Y-72936190D01*
X139854819Y-72936190D02*
X139997676Y-73031428D01*
X139997676Y-73031428D02*
X140092914Y-73126666D01*
X140092914Y-73126666D02*
X140140533Y-73221904D01*
X157333333Y-80584819D02*
X157000000Y-80108628D01*
X156761905Y-80584819D02*
X156761905Y-79584819D01*
X156761905Y-79584819D02*
X157142857Y-79584819D01*
X157142857Y-79584819D02*
X157238095Y-79632438D01*
X157238095Y-79632438D02*
X157285714Y-79680057D01*
X157285714Y-79680057D02*
X157333333Y-79775295D01*
X157333333Y-79775295D02*
X157333333Y-79918152D01*
X157333333Y-79918152D02*
X157285714Y-80013390D01*
X157285714Y-80013390D02*
X157238095Y-80061009D01*
X157238095Y-80061009D02*
X157142857Y-80108628D01*
X157142857Y-80108628D02*
X156761905Y-80108628D01*
X157714286Y-79680057D02*
X157761905Y-79632438D01*
X157761905Y-79632438D02*
X157857143Y-79584819D01*
X157857143Y-79584819D02*
X158095238Y-79584819D01*
X158095238Y-79584819D02*
X158190476Y-79632438D01*
X158190476Y-79632438D02*
X158238095Y-79680057D01*
X158238095Y-79680057D02*
X158285714Y-79775295D01*
X158285714Y-79775295D02*
X158285714Y-79870533D01*
X158285714Y-79870533D02*
X158238095Y-80013390D01*
X158238095Y-80013390D02*
X157666667Y-80584819D01*
X157666667Y-80584819D02*
X158285714Y-80584819D01*
X128384819Y-74313333D02*
X129099104Y-74313333D01*
X129099104Y-74313333D02*
X129241961Y-74360952D01*
X129241961Y-74360952D02*
X129337200Y-74456190D01*
X129337200Y-74456190D02*
X129384819Y-74599047D01*
X129384819Y-74599047D02*
X129384819Y-74694285D01*
X129384819Y-73313333D02*
X129384819Y-73884761D01*
X129384819Y-73599047D02*
X128384819Y-73599047D01*
X128384819Y-73599047D02*
X128527676Y-73694285D01*
X128527676Y-73694285D02*
X128622914Y-73789523D01*
X128622914Y-73789523D02*
X128670533Y-73884761D01*
X145083333Y-58609580D02*
X145035714Y-58657200D01*
X145035714Y-58657200D02*
X144892857Y-58704819D01*
X144892857Y-58704819D02*
X144797619Y-58704819D01*
X144797619Y-58704819D02*
X144654762Y-58657200D01*
X144654762Y-58657200D02*
X144559524Y-58561961D01*
X144559524Y-58561961D02*
X144511905Y-58466723D01*
X144511905Y-58466723D02*
X144464286Y-58276247D01*
X144464286Y-58276247D02*
X144464286Y-58133390D01*
X144464286Y-58133390D02*
X144511905Y-57942914D01*
X144511905Y-57942914D02*
X144559524Y-57847676D01*
X144559524Y-57847676D02*
X144654762Y-57752438D01*
X144654762Y-57752438D02*
X144797619Y-57704819D01*
X144797619Y-57704819D02*
X144892857Y-57704819D01*
X144892857Y-57704819D02*
X145035714Y-57752438D01*
X145035714Y-57752438D02*
X145083333Y-57800057D01*
X145464286Y-57800057D02*
X145511905Y-57752438D01*
X145511905Y-57752438D02*
X145607143Y-57704819D01*
X145607143Y-57704819D02*
X145845238Y-57704819D01*
X145845238Y-57704819D02*
X145940476Y-57752438D01*
X145940476Y-57752438D02*
X145988095Y-57800057D01*
X145988095Y-57800057D02*
X146035714Y-57895295D01*
X146035714Y-57895295D02*
X146035714Y-57990533D01*
X146035714Y-57990533D02*
X145988095Y-58133390D01*
X145988095Y-58133390D02*
X145416667Y-58704819D01*
X145416667Y-58704819D02*
X146035714Y-58704819D01*
D11*
%TO.C,G\u002A\u002A\u002A*%
G36*
X157551229Y-60929968D02*
G01*
X157597449Y-60937711D01*
X157631473Y-60951282D01*
X157651062Y-60970082D01*
X157651225Y-60970383D01*
X157659123Y-60997400D01*
X157659147Y-61028454D01*
X157651939Y-61056096D01*
X157642664Y-61069672D01*
X157632140Y-61080426D01*
X157631267Y-61089491D01*
X157640709Y-61103147D01*
X157646997Y-61110677D01*
X157665690Y-61144903D01*
X157668109Y-61181580D01*
X157654357Y-61217474D01*
X157643190Y-61232207D01*
X157617923Y-61260508D01*
X157517344Y-61263425D01*
X157416765Y-61266342D01*
X157417273Y-61230177D01*
X157469140Y-61230177D01*
X157505971Y-61230129D01*
X157538367Y-61227898D01*
X157569883Y-61222483D01*
X157573920Y-61221436D01*
X157602688Y-61206539D01*
X157618193Y-61183259D01*
X157618635Y-61154715D01*
X157616416Y-61147729D01*
X157601794Y-61127418D01*
X157575272Y-61114837D01*
X157535017Y-61109275D01*
X157516239Y-61108854D01*
X157469140Y-61108854D01*
X157469140Y-61169515D01*
X157469140Y-61230177D01*
X157417273Y-61230177D01*
X157418126Y-61169515D01*
X157419121Y-61098771D01*
X157419467Y-61074190D01*
X157469140Y-61074190D01*
X157511906Y-61074190D01*
X157542866Y-61072287D01*
X157570652Y-61067495D01*
X157578891Y-61064981D01*
X157605478Y-61048630D01*
X157616421Y-61027180D01*
X157611096Y-61003028D01*
X157599130Y-60987530D01*
X157585040Y-60977443D01*
X157565066Y-60972083D01*
X157534098Y-60970248D01*
X157525469Y-60970198D01*
X157469140Y-60970198D01*
X157469140Y-61022194D01*
X157469140Y-61074190D01*
X157419467Y-61074190D01*
X157420198Y-61022194D01*
X157421477Y-60931201D01*
X157495049Y-60928650D01*
X157551229Y-60929968D01*
G37*
G36*
X157864988Y-60929745D02*
G01*
X157871803Y-60932647D01*
X157878537Y-60939089D01*
X157886129Y-60950940D01*
X157895519Y-60970069D01*
X157907646Y-60998343D01*
X157923450Y-61037633D01*
X157943871Y-61089805D01*
X157962886Y-61138783D01*
X157978680Y-61179969D01*
X157991917Y-61215391D01*
X158001453Y-61241912D01*
X158006141Y-61256397D01*
X158006431Y-61257940D01*
X157999017Y-61263166D01*
X157985172Y-61264841D01*
X157970107Y-61261242D01*
X157957824Y-61247904D01*
X157946662Y-61225844D01*
X157929412Y-61186847D01*
X157854776Y-61186847D01*
X157780141Y-61186847D01*
X157762891Y-61225844D01*
X157749997Y-61250557D01*
X157737546Y-61262266D01*
X157724381Y-61264841D01*
X157708277Y-61262801D01*
X157703122Y-61258993D01*
X157706123Y-61249077D01*
X157714331Y-61226141D01*
X157726554Y-61193269D01*
X157741602Y-61153550D01*
X157744278Y-61146573D01*
X157796329Y-61146573D01*
X157796560Y-61147407D01*
X157809212Y-61151503D01*
X157832078Y-61152893D01*
X157859225Y-61151933D01*
X157884720Y-61148979D01*
X157902629Y-61144385D01*
X157907365Y-61140765D01*
X157906342Y-61129460D01*
X157900680Y-61107722D01*
X157891877Y-61079772D01*
X157881431Y-61049830D01*
X157870843Y-61022114D01*
X157861610Y-61000845D01*
X157855233Y-60990243D01*
X157853798Y-60989953D01*
X157847854Y-61000700D01*
X157838508Y-61022602D01*
X157827350Y-61051290D01*
X157815965Y-61082399D01*
X157805941Y-61111560D01*
X157798867Y-61134407D01*
X157796329Y-61146573D01*
X157744278Y-61146573D01*
X157758282Y-61110069D01*
X157775402Y-61065913D01*
X157791771Y-61024169D01*
X157806198Y-60987922D01*
X157817490Y-60960260D01*
X157824456Y-60944269D01*
X157825217Y-60942759D01*
X157840394Y-60929555D01*
X157857151Y-60928515D01*
X157864988Y-60929745D01*
G37*
G36*
X158339400Y-60929744D02*
G01*
X158344222Y-60933619D01*
X158347782Y-60942526D01*
X158350262Y-60958737D01*
X158351844Y-60984524D01*
X158352711Y-61022159D01*
X158353045Y-61073915D01*
X158353071Y-61099916D01*
X158353071Y-61264841D01*
X158331650Y-61264841D01*
X158310230Y-61264841D01*
X158307819Y-61147587D01*
X158305408Y-61030332D01*
X158263618Y-61108590D01*
X158240491Y-61149997D01*
X158222335Y-61175685D01*
X158207012Y-61185742D01*
X158192384Y-61180254D01*
X158176313Y-61159312D01*
X158156662Y-61123001D01*
X158151759Y-61113187D01*
X158135330Y-61081399D01*
X158121201Y-61056505D01*
X158111379Y-61041918D01*
X158108492Y-61039526D01*
X158105986Y-61047655D01*
X158103904Y-61069897D01*
X158102436Y-61103034D01*
X158101775Y-61143850D01*
X158101757Y-61152183D01*
X158101757Y-61264841D01*
X158080092Y-61264841D01*
X158058427Y-61264841D01*
X158058427Y-61099916D01*
X158058613Y-61041357D01*
X158059284Y-60997902D01*
X158060613Y-60967322D01*
X158062771Y-60947392D01*
X158065930Y-60935885D01*
X158070262Y-60930575D01*
X158071536Y-60929959D01*
X158084185Y-60928920D01*
X158097329Y-60936931D01*
X158112488Y-60955826D01*
X158131181Y-60987439D01*
X158151173Y-61026056D01*
X158168671Y-61060412D01*
X158184108Y-61089543D01*
X158195368Y-61109520D01*
X158199370Y-61115639D01*
X158205566Y-61116591D01*
X158215341Y-61106619D01*
X158229787Y-61084207D01*
X158249992Y-61047837D01*
X158255406Y-61037645D01*
X158279612Y-60992602D01*
X158297817Y-60961139D01*
X158311589Y-60941243D01*
X158322494Y-60930902D01*
X158332100Y-60928103D01*
X158339400Y-60929744D01*
G37*
G36*
X158652432Y-60928660D02*
G01*
X158705062Y-60932542D01*
X158743155Y-60939633D01*
X158769396Y-60951217D01*
X158786472Y-60968575D01*
X158797068Y-60992990D01*
X158798534Y-60998387D01*
X158801944Y-61022506D01*
X158796591Y-61044013D01*
X158787298Y-61061563D01*
X158775819Y-61082160D01*
X158772955Y-61094417D01*
X158778390Y-61104849D01*
X158784829Y-61112199D01*
X158804205Y-61145405D01*
X158807186Y-61182745D01*
X158800198Y-61207864D01*
X158786819Y-61231264D01*
X158767594Y-61247600D01*
X158739693Y-61257935D01*
X158700284Y-61263328D01*
X158648144Y-61264841D01*
X158561054Y-61264841D01*
X158561054Y-61162760D01*
X158561054Y-61106898D01*
X158604384Y-61106898D01*
X158604384Y-61162760D01*
X158605327Y-61192625D01*
X158607788Y-61215342D01*
X158610884Y-61225315D01*
X158624580Y-61229565D01*
X158649305Y-61229827D01*
X158679409Y-61226835D01*
X158709244Y-61221320D01*
X158733159Y-61214015D01*
X158743458Y-61208134D01*
X158757668Y-61184884D01*
X158758334Y-61157625D01*
X158745549Y-61133050D01*
X158742403Y-61129942D01*
X158723778Y-61119372D01*
X158694074Y-61112892D01*
X158664409Y-61110289D01*
X158604384Y-61106898D01*
X158561054Y-61106898D01*
X158561054Y-61094719D01*
X158561054Y-61074190D01*
X158604384Y-61074190D01*
X158654214Y-61074062D01*
X158685933Y-61072099D01*
X158713656Y-61067198D01*
X158725708Y-61063029D01*
X158744135Y-61045262D01*
X158750614Y-61020488D01*
X158744100Y-60995170D01*
X158738013Y-60986763D01*
X158725760Y-60977407D01*
X158707275Y-60972273D01*
X158677896Y-60970321D01*
X158663703Y-60970198D01*
X158604384Y-60970198D01*
X158604384Y-61022194D01*
X158604384Y-61074190D01*
X158561054Y-61074190D01*
X158561054Y-61022194D01*
X158561054Y-60924596D01*
X158652432Y-60928660D01*
G37*
G36*
X159005989Y-60930437D02*
G01*
X159016033Y-60936577D01*
X159022029Y-60947497D01*
X159032786Y-60971516D01*
X159047065Y-61005474D01*
X159063627Y-61046209D01*
X159081232Y-61090560D01*
X159098642Y-61135367D01*
X159114619Y-61177467D01*
X159127922Y-61213700D01*
X159137313Y-61240906D01*
X159141554Y-61255922D01*
X159141675Y-61257148D01*
X159134275Y-61263004D01*
X159120727Y-61264841D01*
X159106183Y-61261446D01*
X159095016Y-61248615D01*
X159084886Y-61225844D01*
X159069993Y-61186847D01*
X158993582Y-61186847D01*
X158917171Y-61186847D01*
X158899920Y-61225844D01*
X158885182Y-61252551D01*
X158870735Y-61264044D01*
X158865362Y-61264841D01*
X158849538Y-61261995D01*
X158844563Y-61258342D01*
X158846465Y-61248615D01*
X158853818Y-61225331D01*
X158865727Y-61191061D01*
X158881294Y-61148376D01*
X158885931Y-61136098D01*
X158938456Y-61136098D01*
X158938494Y-61144277D01*
X158949159Y-61148481D01*
X158970991Y-61151098D01*
X158997962Y-61152053D01*
X159024043Y-61151269D01*
X159043206Y-61148670D01*
X159049304Y-61145684D01*
X159048608Y-61134735D01*
X159042546Y-61113168D01*
X159032843Y-61085346D01*
X159021223Y-61055634D01*
X159009410Y-61028395D01*
X158999131Y-61007992D01*
X158992109Y-60998789D01*
X158991204Y-60998690D01*
X158984285Y-61007827D01*
X158974311Y-61028842D01*
X158963010Y-61056956D01*
X158952114Y-61087390D01*
X158943352Y-61115364D01*
X158938456Y-61136098D01*
X158885931Y-61136098D01*
X158899624Y-61099846D01*
X158902092Y-61093424D01*
X158923738Y-61037848D01*
X158940550Y-60996473D01*
X158953580Y-60967196D01*
X158963878Y-60947913D01*
X158972494Y-60936522D01*
X158980478Y-60930921D01*
X158983799Y-60929813D01*
X159005989Y-60930437D01*
G37*
G36*
X159481239Y-60933646D02*
G01*
X159485271Y-60936604D01*
X159489698Y-60943568D01*
X159492805Y-60957433D01*
X159494723Y-60980427D01*
X159495581Y-61014784D01*
X159495509Y-61062732D01*
X159495005Y-61103574D01*
X159492648Y-61260508D01*
X159470983Y-61260508D01*
X159449318Y-61260508D01*
X159444985Y-61147851D01*
X159440652Y-61035193D01*
X159401655Y-61108854D01*
X159380745Y-61146257D01*
X159364775Y-61169566D01*
X159352227Y-61180771D01*
X159345582Y-61182514D01*
X159334030Y-61177440D01*
X159319428Y-61161006D01*
X159300342Y-61131400D01*
X159287421Y-61108854D01*
X159246335Y-61035193D01*
X159243835Y-61147851D01*
X159242689Y-61193818D01*
X159241294Y-61225299D01*
X159239107Y-61245136D01*
X159235586Y-61256170D01*
X159230188Y-61261244D01*
X159222370Y-61263200D01*
X159221797Y-61263283D01*
X159204748Y-61260980D01*
X159197758Y-61254325D01*
X159196434Y-61242201D01*
X159195531Y-61215767D01*
X159195086Y-61178041D01*
X159195139Y-61132040D01*
X159195630Y-61086897D01*
X159198004Y-60931201D01*
X159218568Y-60931201D01*
X159228617Y-60933425D01*
X159238976Y-60941713D01*
X159251468Y-60958493D01*
X159267918Y-60986191D01*
X159288636Y-61024378D01*
X159308113Y-61060709D01*
X159324807Y-61091237D01*
X159336973Y-61112810D01*
X159342865Y-61122278D01*
X159342920Y-61122335D01*
X159348421Y-61116964D01*
X159359963Y-61098837D01*
X159375902Y-61070735D01*
X159394592Y-61035436D01*
X159396195Y-61032308D01*
X159420600Y-60986478D01*
X159439903Y-60955205D01*
X159455508Y-60936981D01*
X159468819Y-60930297D01*
X159481239Y-60933646D01*
G37*
G36*
X157735345Y-60030847D02*
G01*
X157796984Y-60044540D01*
X157850938Y-60067673D01*
X157878859Y-60086796D01*
X157905492Y-60114060D01*
X157927168Y-60145789D01*
X157940988Y-60176874D01*
X157944118Y-60201757D01*
X157941379Y-60211143D01*
X157934026Y-60216992D01*
X157918445Y-60220359D01*
X157891019Y-60222299D01*
X157870995Y-60223090D01*
X157800553Y-60225590D01*
X157783314Y-60196373D01*
X157759052Y-60170980D01*
X157724896Y-60154980D01*
X157685845Y-60148896D01*
X157646895Y-60153253D01*
X157613045Y-60168572D01*
X157602495Y-60177441D01*
X157585138Y-60202602D01*
X157584690Y-60227788D01*
X157601118Y-60255018D01*
X157601296Y-60255225D01*
X157613442Y-60265866D01*
X157632459Y-60276258D01*
X157661024Y-60287487D01*
X157701808Y-60300640D01*
X157742119Y-60312447D01*
X157806574Y-60332085D01*
X157856249Y-60350362D01*
X157893506Y-60368490D01*
X157920702Y-60387687D01*
X157940200Y-60409167D01*
X157945464Y-60417156D01*
X157961343Y-60456020D01*
X157968675Y-60501785D01*
X157966423Y-60545920D01*
X157962859Y-60560428D01*
X157946822Y-60592307D01*
X157920648Y-60626108D01*
X157889604Y-60655811D01*
X157864721Y-60672617D01*
X157812228Y-60692909D01*
X157749794Y-60705713D01*
X157683295Y-60710626D01*
X157618608Y-60707241D01*
X157561613Y-60695153D01*
X157557576Y-60693803D01*
X157503412Y-60668540D01*
X157460524Y-60634962D01*
X157430755Y-60595050D01*
X157415947Y-60550787D01*
X157414852Y-60540215D01*
X157412811Y-60506568D01*
X157476282Y-60504009D01*
X157539753Y-60501449D01*
X157571608Y-60536034D01*
X157605307Y-60566410D01*
X157640326Y-60583053D01*
X157683067Y-60588797D01*
X157690965Y-60588895D01*
X157732771Y-60584217D01*
X157768283Y-60571510D01*
X157794924Y-60552762D01*
X157810118Y-60529961D01*
X157811288Y-60505097D01*
X157808737Y-60498005D01*
X157799050Y-60482102D01*
X157784208Y-60468693D01*
X157761462Y-60456383D01*
X157728066Y-60443778D01*
X157681272Y-60429485D01*
X157664125Y-60424635D01*
X157620374Y-60411568D01*
X157577825Y-60397403D01*
X157542238Y-60384128D01*
X157524417Y-60376366D01*
X157480252Y-60346601D01*
X157449482Y-60308717D01*
X157431905Y-60265344D01*
X157427321Y-60219111D01*
X157435527Y-60172647D01*
X157456322Y-60128581D01*
X157489503Y-60089543D01*
X157534869Y-60058161D01*
X157549373Y-60051258D01*
X157607033Y-60033719D01*
X157670526Y-60027078D01*
X157735345Y-60030847D01*
G37*
G36*
X159368716Y-60030366D02*
G01*
X159401139Y-60032006D01*
X159425619Y-60035633D01*
X159446849Y-60041959D01*
X159469517Y-60051697D01*
X159470983Y-60052385D01*
X159502810Y-60069243D01*
X159532891Y-60088204D01*
X159547190Y-60098971D01*
X159573649Y-60127362D01*
X159594382Y-60160850D01*
X159606428Y-60193798D01*
X159607984Y-60214749D01*
X159605937Y-60226150D01*
X159600620Y-60233178D01*
X159588410Y-60237093D01*
X159565686Y-60239154D01*
X159534117Y-60240434D01*
X159462929Y-60242946D01*
X159443124Y-60212194D01*
X159411613Y-60178452D01*
X159370289Y-60156618D01*
X159323571Y-60148706D01*
X159305997Y-60149686D01*
X159269800Y-60156210D01*
X159242097Y-60167497D01*
X159221822Y-60185623D01*
X159207908Y-60212658D01*
X159199289Y-60250678D01*
X159194899Y-60301754D01*
X159193671Y-60367959D01*
X159193671Y-60368042D01*
X159193904Y-60418866D01*
X159194865Y-60455744D01*
X159196948Y-60482058D01*
X159200545Y-60501190D01*
X159206052Y-60516521D01*
X159212380Y-60528829D01*
X159238879Y-60559738D01*
X159274739Y-60579490D01*
X159315957Y-60587964D01*
X159358527Y-60585037D01*
X159398446Y-60570587D01*
X159431710Y-60544494D01*
X159438822Y-60535722D01*
X159450270Y-60512633D01*
X159458594Y-60482614D01*
X159460064Y-60472894D01*
X159464571Y-60432907D01*
X159408848Y-60432907D01*
X159371786Y-60431202D01*
X159348764Y-60424662D01*
X159336699Y-60411148D01*
X159332509Y-60388520D01*
X159332327Y-60379797D01*
X159333595Y-60357681D01*
X159339021Y-60341808D01*
X159351040Y-60331157D01*
X159372088Y-60324706D01*
X159404598Y-60321434D01*
X159451006Y-60320319D01*
X159474278Y-60320249D01*
X159527968Y-60320377D01*
X159566671Y-60322026D01*
X159592728Y-60327097D01*
X159608481Y-60337489D01*
X159616271Y-60355101D01*
X159618439Y-60381834D01*
X159617327Y-60419586D01*
X159616597Y-60435726D01*
X159614063Y-60479995D01*
X159610366Y-60512190D01*
X159604411Y-60537570D01*
X159595107Y-60561391D01*
X159587039Y-60577955D01*
X159552217Y-60627542D01*
X159504010Y-60666492D01*
X159443129Y-60694252D01*
X159433887Y-60697139D01*
X159395099Y-60704783D01*
X159347132Y-60708689D01*
X159296579Y-60708828D01*
X159250031Y-60705171D01*
X159215336Y-60698096D01*
X159152429Y-60670691D01*
X159102897Y-60632365D01*
X159066423Y-60582825D01*
X159049604Y-60544578D01*
X159043120Y-60522875D01*
X159038594Y-60498873D01*
X159035729Y-60469084D01*
X159034228Y-60430020D01*
X159033795Y-60378193D01*
X159033830Y-60359246D01*
X159034228Y-60305768D01*
X159035257Y-60266166D01*
X159037300Y-60236986D01*
X159040742Y-60214773D01*
X159045970Y-60196074D01*
X159053369Y-60177434D01*
X159054364Y-60175166D01*
X159085270Y-60125179D01*
X159129483Y-60081845D01*
X159183233Y-60048850D01*
X159183944Y-60048520D01*
X159205133Y-60040078D01*
X159227744Y-60034599D01*
X159256223Y-60031495D01*
X159295015Y-60030177D01*
X159323661Y-60029998D01*
X159368716Y-60030366D01*
G37*
G36*
X158207943Y-60035886D02*
G01*
X158219594Y-60039184D01*
X158225111Y-60045881D01*
X158227411Y-60053424D01*
X158228463Y-60066469D01*
X158229302Y-60094745D01*
X158229914Y-60136149D01*
X158230284Y-60188582D01*
X158230396Y-60249943D01*
X158230234Y-60318129D01*
X158229830Y-60385244D01*
X158227414Y-60697219D01*
X158155783Y-60699738D01*
X158117016Y-60700232D01*
X158093035Y-60698227D01*
X158081437Y-60693448D01*
X158079846Y-60691038D01*
X158078927Y-60680076D01*
X158078197Y-60653780D01*
X158077667Y-60614147D01*
X158077349Y-60563176D01*
X158077257Y-60502863D01*
X158077401Y-60435205D01*
X158077796Y-60362200D01*
X158077817Y-60359212D01*
X158080092Y-60038605D01*
X158151334Y-60036092D01*
X158186431Y-60035138D01*
X158207943Y-60035886D01*
G37*
G36*
X158888386Y-60037571D02*
G01*
X158900604Y-60043356D01*
X158905321Y-60048486D01*
X158908347Y-60061100D01*
X158910934Y-60088460D01*
X158913080Y-60128155D01*
X158914784Y-60177776D01*
X158916041Y-60234909D01*
X158916851Y-60297146D01*
X158917211Y-60362073D01*
X158917118Y-60427281D01*
X158916569Y-60490358D01*
X158915563Y-60548894D01*
X158914098Y-60600476D01*
X158912170Y-60642695D01*
X158909777Y-60673138D01*
X158906917Y-60689396D01*
X158905960Y-60691153D01*
X158891712Y-60696826D01*
X158865044Y-60700519D01*
X158837544Y-60701552D01*
X158779527Y-60701552D01*
X158650792Y-60505954D01*
X158522057Y-60310356D01*
X158519714Y-60494446D01*
X158518376Y-60563574D01*
X158516329Y-60618652D01*
X158513628Y-60658787D01*
X158510326Y-60683087D01*
X158507821Y-60690045D01*
X158494454Y-60696379D01*
X158470410Y-60700339D01*
X158441071Y-60701900D01*
X158411818Y-60701035D01*
X158388031Y-60697720D01*
X158375092Y-60691927D01*
X158374355Y-60690686D01*
X158373466Y-60679806D01*
X158372764Y-60653589D01*
X158372259Y-60614031D01*
X158371963Y-60563125D01*
X158371886Y-60502865D01*
X158372041Y-60435247D01*
X158372439Y-60362264D01*
X158372460Y-60359212D01*
X158374736Y-60038605D01*
X158438985Y-60038605D01*
X158503234Y-60038605D01*
X158633970Y-60242112D01*
X158764705Y-60445619D01*
X158769038Y-60242112D01*
X158773371Y-60038605D01*
X158833827Y-60035997D01*
X158867560Y-60035368D01*
X158888386Y-60037571D01*
G37*
G36*
X160086031Y-60071102D02*
G01*
X160097834Y-60099501D01*
X160113372Y-60139043D01*
X160131863Y-60187547D01*
X160152529Y-60242835D01*
X160174586Y-60302729D01*
X160197255Y-60365050D01*
X160219754Y-60427617D01*
X160241302Y-60488253D01*
X160261119Y-60544779D01*
X160278423Y-60595016D01*
X160292434Y-60636784D01*
X160302369Y-60667905D01*
X160307449Y-60686201D01*
X160307879Y-60690039D01*
X160301062Y-60696429D01*
X160284751Y-60699717D01*
X160255854Y-60700319D01*
X160235960Y-60699753D01*
X160168741Y-60697219D01*
X160146263Y-60640890D01*
X160123786Y-60584562D01*
X159986609Y-60584562D01*
X159849432Y-60584562D01*
X159826954Y-60640890D01*
X159804476Y-60697219D01*
X159737257Y-60699753D01*
X159701284Y-60700355D01*
X159679296Y-60698541D01*
X159668057Y-60693859D01*
X159665210Y-60689704D01*
X159667200Y-60679544D01*
X159674498Y-60655333D01*
X159686324Y-60619248D01*
X159701895Y-60573466D01*
X159720432Y-60520162D01*
X159741152Y-60461514D01*
X159745187Y-60450239D01*
X159888510Y-60450239D01*
X159986125Y-60450239D01*
X160083741Y-60450239D01*
X160038844Y-60324047D01*
X160022934Y-60280648D01*
X160008486Y-60243681D01*
X159996667Y-60215947D01*
X159988645Y-60200249D01*
X159986250Y-60197758D01*
X159979285Y-60205162D01*
X159969869Y-60224214D01*
X159964040Y-60239456D01*
X159954660Y-60266133D01*
X159941517Y-60303075D01*
X159926762Y-60344253D01*
X159919018Y-60365745D01*
X159888510Y-60450239D01*
X159745187Y-60450239D01*
X159763275Y-60399698D01*
X159786018Y-60336890D01*
X159808602Y-60275266D01*
X159830245Y-60217004D01*
X159850165Y-60164279D01*
X159867581Y-60119269D01*
X159881713Y-60084148D01*
X159887248Y-60071102D01*
X159903307Y-60034272D01*
X159986609Y-60034272D01*
X160069910Y-60034272D01*
X160086031Y-60071102D01*
G37*
G36*
X160960988Y-60034219D02*
G01*
X160969394Y-60034272D01*
X161003081Y-60035218D01*
X161023018Y-60038549D01*
X161032708Y-60045006D01*
X161034266Y-60047979D01*
X161035610Y-60060008D01*
X161036752Y-60086935D01*
X161037691Y-60126326D01*
X161038426Y-60175748D01*
X161038959Y-60232769D01*
X161039289Y-60294954D01*
X161039415Y-60359872D01*
X161039338Y-60425088D01*
X161039059Y-60488170D01*
X161038576Y-60546684D01*
X161037890Y-60598198D01*
X161037001Y-60640277D01*
X161035910Y-60670490D01*
X161034615Y-60686403D01*
X161034266Y-60687845D01*
X161027590Y-60695248D01*
X161012325Y-60699521D01*
X160985023Y-60701345D01*
X160964938Y-60701552D01*
X160933810Y-60701282D01*
X160910504Y-60700567D01*
X160899443Y-60699554D01*
X160899114Y-60699386D01*
X160898413Y-60690488D01*
X160897409Y-60666727D01*
X160896183Y-60630571D01*
X160894814Y-60584485D01*
X160893383Y-60530935D01*
X160892615Y-60499849D01*
X160887871Y-60302478D01*
X160832340Y-60408058D01*
X160805784Y-60457706D01*
X160784988Y-60493849D01*
X160768163Y-60518582D01*
X160753521Y-60534002D01*
X160739271Y-60542205D01*
X160723626Y-60545288D01*
X160714992Y-60545565D01*
X160699907Y-60544095D01*
X160686234Y-60538375D01*
X160672384Y-60526436D01*
X160656765Y-60506311D01*
X160637785Y-60476031D01*
X160613854Y-60433630D01*
X160592353Y-60393910D01*
X160541232Y-60298584D01*
X160536899Y-60497902D01*
X160532566Y-60697219D01*
X160469612Y-60699768D01*
X160433294Y-60700164D01*
X160411736Y-60697548D01*
X160402578Y-60691613D01*
X160402342Y-60691068D01*
X160401420Y-60680099D01*
X160400687Y-60653796D01*
X160400155Y-60614157D01*
X160399836Y-60563180D01*
X160399742Y-60502862D01*
X160399886Y-60435201D01*
X160400279Y-60362195D01*
X160400300Y-60359212D01*
X160402576Y-60038605D01*
X160467418Y-60038605D01*
X160532260Y-60038605D01*
X160623105Y-60205292D01*
X160649765Y-60253463D01*
X160673868Y-60295600D01*
X160694158Y-60329620D01*
X160709377Y-60353441D01*
X160718268Y-60364978D01*
X160719864Y-60365613D01*
X160725796Y-60356235D01*
X160738510Y-60334257D01*
X160756520Y-60302311D01*
X160778339Y-60263028D01*
X160796899Y-60229256D01*
X160829276Y-60169974D01*
X160854605Y-60124064D01*
X160874391Y-60089827D01*
X160890139Y-60065559D01*
X160903353Y-60049559D01*
X160915541Y-60040127D01*
X160928205Y-60035560D01*
X160942853Y-60034158D01*
X160960988Y-60034219D01*
G37*
G36*
X158620724Y-57242850D02*
G01*
X158640376Y-57263256D01*
X158647714Y-57292162D01*
X158653221Y-57305580D01*
X158667630Y-57327063D01*
X158687768Y-57352908D01*
X158710467Y-57379409D01*
X158732554Y-57402862D01*
X158750860Y-57419564D01*
X158762107Y-57425810D01*
X158772396Y-57421129D01*
X158793611Y-57408422D01*
X158822545Y-57389691D01*
X158852328Y-57369481D01*
X158885695Y-57347019D01*
X158914504Y-57328811D01*
X158935446Y-57316872D01*
X158944770Y-57313152D01*
X158955510Y-57318970D01*
X158974734Y-57334513D01*
X158999013Y-57356912D01*
X159009769Y-57367548D01*
X159036709Y-57395805D01*
X159053053Y-57416423D01*
X159061225Y-57433204D01*
X159063649Y-57449947D01*
X159063669Y-57452041D01*
X159063657Y-57482139D01*
X159189326Y-57479333D01*
X159314995Y-57476528D01*
X159314995Y-57611490D01*
X159314601Y-57657643D01*
X159313514Y-57697009D01*
X159311876Y-57726647D01*
X159309828Y-57743616D01*
X159308495Y-57746495D01*
X159298036Y-57751470D01*
X159280655Y-57763665D01*
X159277132Y-57766434D01*
X159252268Y-57786330D01*
X159303469Y-57837885D01*
X159340645Y-57880217D01*
X159362106Y-57916451D01*
X159365163Y-57925110D01*
X159372729Y-57964606D01*
X159375284Y-58009646D01*
X159372774Y-58052588D01*
X159366233Y-58082873D01*
X159361330Y-58120024D01*
X159373105Y-58155958D01*
X159401722Y-58190880D01*
X159447346Y-58224994D01*
X159506348Y-58256724D01*
X159584192Y-58301897D01*
X159647896Y-58357045D01*
X159697230Y-58421806D01*
X159731964Y-58495815D01*
X159751867Y-58578709D01*
X159756960Y-58652960D01*
X159756361Y-58688121D01*
X159754750Y-58715647D01*
X159752412Y-58731753D01*
X159750885Y-58734374D01*
X159742859Y-58728465D01*
X159725553Y-58712393D01*
X159701541Y-58688636D01*
X159674391Y-58660713D01*
X159637017Y-58623323D01*
X159609078Y-58599327D01*
X159589811Y-58588106D01*
X159584130Y-58587052D01*
X159569691Y-58590140D01*
X159568012Y-58602669D01*
X159568825Y-58606551D01*
X159587163Y-58695283D01*
X159597721Y-58771011D01*
X159600843Y-58832629D01*
X159600714Y-58903361D01*
X159572007Y-58869428D01*
X159551558Y-58848811D01*
X159536643Y-58841140D01*
X159532786Y-58841993D01*
X159527407Y-58847988D01*
X159526722Y-58858400D01*
X159531511Y-58875719D01*
X159542551Y-58902431D01*
X159560622Y-58941026D01*
X159569530Y-58959397D01*
X159586370Y-58994915D01*
X159596881Y-59021702D01*
X159602548Y-59046245D01*
X159604861Y-59075030D01*
X159605305Y-59114541D01*
X159605305Y-59115385D01*
X159604747Y-59156299D01*
X159602261Y-59186062D01*
X159596635Y-59210838D01*
X159586655Y-59236793D01*
X159577470Y-59256769D01*
X159546354Y-59309721D01*
X159503771Y-59359004D01*
X159495276Y-59367260D01*
X159470058Y-59390589D01*
X159449415Y-59408450D01*
X159436611Y-59418069D01*
X159434430Y-59418987D01*
X159427265Y-59411903D01*
X159415663Y-59393657D01*
X159406432Y-59376534D01*
X159391249Y-59352379D01*
X159370612Y-59326710D01*
X159348329Y-59303498D01*
X159328209Y-59286715D01*
X159314160Y-59280331D01*
X159310997Y-59288283D01*
X159307685Y-59309321D01*
X159304854Y-59339216D01*
X159304435Y-59345364D01*
X159291297Y-59418360D01*
X159262332Y-59488117D01*
X159219042Y-59551521D01*
X159190135Y-59582121D01*
X159166234Y-59603723D01*
X159146622Y-59619624D01*
X159135038Y-59626825D01*
X159134200Y-59626970D01*
X159126223Y-59619578D01*
X159117328Y-59601310D01*
X159115605Y-59596419D01*
X159104755Y-59572409D01*
X159089164Y-59547672D01*
X159072448Y-59527051D01*
X159058228Y-59515388D01*
X159054245Y-59514312D01*
X159050025Y-59522172D01*
X159047160Y-59542548D01*
X159046349Y-59564735D01*
X159044512Y-59594653D01*
X159039689Y-59627730D01*
X159032918Y-59659548D01*
X159025234Y-59685691D01*
X159017675Y-59701743D01*
X159013516Y-59704690D01*
X159005920Y-59697744D01*
X158993118Y-59680232D01*
X158983825Y-59665646D01*
X158960541Y-59634614D01*
X158937068Y-59616382D01*
X158915649Y-59612296D01*
X158904047Y-59617735D01*
X158892958Y-59630829D01*
X158877623Y-59653614D01*
X158865563Y-59673843D01*
X158829330Y-59724019D01*
X158780360Y-59771359D01*
X158723203Y-59811775D01*
X158694970Y-59827135D01*
X158635329Y-59850404D01*
X158582455Y-59858031D01*
X158535811Y-59850090D01*
X158534383Y-59849568D01*
X158491395Y-59829625D01*
X158444657Y-59801685D01*
X158400770Y-59770107D01*
X158366334Y-59739253D01*
X158364582Y-59737378D01*
X158341371Y-59707285D01*
X158319525Y-59671021D01*
X158309797Y-59650620D01*
X158295208Y-59620736D01*
X158282078Y-59603961D01*
X158275649Y-59601165D01*
X158252934Y-59609440D01*
X158228265Y-59632099D01*
X158204167Y-59666781D01*
X158202742Y-59669286D01*
X158181388Y-59707269D01*
X158166263Y-59678021D01*
X158157688Y-59653808D01*
X158150562Y-59620182D01*
X158146915Y-59589736D01*
X158145796Y-59574094D01*
X158210958Y-59574094D01*
X158214197Y-59583390D01*
X158215462Y-59583640D01*
X158223130Y-59576417D01*
X158233221Y-59558399D01*
X158236294Y-59551460D01*
X158248421Y-59526668D01*
X158249512Y-59524962D01*
X158319941Y-59524962D01*
X158321634Y-59578288D01*
X158336046Y-59625677D01*
X158364699Y-59670737D01*
X158395681Y-59704423D01*
X158419926Y-59727769D01*
X158434496Y-59740242D01*
X158442095Y-59743102D01*
X158445424Y-59737609D01*
X158446806Y-59728255D01*
X158450495Y-59711200D01*
X158454791Y-59704964D01*
X158463006Y-59710760D01*
X158479389Y-59725922D01*
X158499384Y-59746128D01*
X158534573Y-59779998D01*
X158562885Y-59801043D01*
X158580553Y-59808106D01*
X158585436Y-59801379D01*
X158587052Y-59787407D01*
X158582105Y-59769600D01*
X158564653Y-59756676D01*
X158558483Y-59753922D01*
X158534104Y-59739225D01*
X158509980Y-59717991D01*
X158505559Y-59713041D01*
X158489641Y-59690563D01*
X158484207Y-59669366D01*
X158485186Y-59650134D01*
X158510933Y-59650134D01*
X158514624Y-59681050D01*
X158529547Y-59708156D01*
X158556038Y-59727332D01*
X158578735Y-59736362D01*
X158594643Y-59738072D01*
X158612545Y-59732297D01*
X158626106Y-59726021D01*
X158653408Y-59705147D01*
X158668314Y-59677169D01*
X158671665Y-59645966D01*
X158664305Y-59615415D01*
X158647078Y-59589393D01*
X158620826Y-59571778D01*
X158591385Y-59566308D01*
X158558700Y-59573496D01*
X158533826Y-59592460D01*
X158517619Y-59619305D01*
X158510933Y-59650134D01*
X158485186Y-59650134D01*
X158485312Y-59647659D01*
X158497247Y-59605107D01*
X158521009Y-59570932D01*
X158553915Y-59548874D01*
X158556978Y-59547704D01*
X158580028Y-59534886D01*
X158587052Y-59520807D01*
X158584767Y-59509979D01*
X158682378Y-59509979D01*
X158686711Y-59514312D01*
X158691044Y-59509979D01*
X158686711Y-59505646D01*
X158682378Y-59509979D01*
X158584767Y-59509979D01*
X158582609Y-59499756D01*
X158571318Y-59474038D01*
X158556240Y-59448685D01*
X158540433Y-59428730D01*
X158526957Y-59419206D01*
X158525163Y-59418987D01*
X158517641Y-59426215D01*
X158507630Y-59444267D01*
X158504450Y-59451484D01*
X158489758Y-59480270D01*
X158470867Y-59509545D01*
X158467273Y-59514312D01*
X158441325Y-59552908D01*
X158427288Y-59589660D01*
X158422488Y-59632084D01*
X158422398Y-59640377D01*
X158420697Y-59669390D01*
X158416330Y-59684746D01*
X158410403Y-59685361D01*
X158404021Y-59670151D01*
X158401817Y-59660551D01*
X158397109Y-59615155D01*
X158403270Y-59573440D01*
X158421558Y-59531287D01*
X158453229Y-59484576D01*
X158457061Y-59479649D01*
X158470646Y-59458690D01*
X158481701Y-59435332D01*
X158488831Y-59413874D01*
X158490643Y-59398613D01*
X158485745Y-59393846D01*
X158484786Y-59394128D01*
X158473323Y-59402885D01*
X158454715Y-59421645D01*
X158432246Y-59446569D01*
X158409200Y-59473817D01*
X158388862Y-59499550D01*
X158374516Y-59519927D01*
X158370026Y-59528301D01*
X158360275Y-59543668D01*
X158351119Y-59548292D01*
X158345092Y-59546287D01*
X158350417Y-59543399D01*
X158357368Y-59533130D01*
X158356561Y-59528241D01*
X158358951Y-59515840D01*
X158369376Y-59494511D01*
X158383190Y-59472472D01*
X158400163Y-59445317D01*
X158405209Y-59430564D01*
X158401790Y-59427653D01*
X158394254Y-59423756D01*
X158394013Y-59409491D01*
X158396401Y-59397322D01*
X158400344Y-59377485D01*
X158401324Y-59367335D01*
X158401077Y-59366991D01*
X158395452Y-59373536D01*
X158382539Y-59390855D01*
X158364913Y-59415474D01*
X158361257Y-59420672D01*
X158340342Y-59452626D01*
X158328152Y-59478410D01*
X158321970Y-59504875D01*
X158319941Y-59524962D01*
X158249512Y-59524962D01*
X158260981Y-59507030D01*
X158262973Y-59504657D01*
X158270651Y-59490621D01*
X158266089Y-59483347D01*
X158253627Y-59484554D01*
X158238546Y-59494996D01*
X158228346Y-59510388D01*
X158219422Y-59532259D01*
X158213163Y-59555272D01*
X158210958Y-59574094D01*
X158145796Y-59574094D01*
X158142690Y-59530698D01*
X158118091Y-59554266D01*
X158098795Y-59578062D01*
X158084759Y-59604444D01*
X158083953Y-59606735D01*
X158076445Y-59625905D01*
X158070405Y-59635411D01*
X158069749Y-59635636D01*
X158060828Y-59630902D01*
X158042387Y-59618607D01*
X158022875Y-59604653D01*
X157965009Y-59553917D01*
X157922695Y-59497240D01*
X157894769Y-59432514D01*
X157880070Y-59357630D01*
X157878759Y-59343159D01*
X157875482Y-59312684D01*
X157871441Y-59291155D01*
X157895765Y-59291155D01*
X157896792Y-59306787D01*
X157906836Y-59366753D01*
X157926463Y-59425441D01*
X157953433Y-59477418D01*
X157982309Y-59514149D01*
X158002299Y-59533123D01*
X158017574Y-59545772D01*
X158023392Y-59548976D01*
X158031071Y-59541984D01*
X158040056Y-59526132D01*
X158050303Y-59508276D01*
X158066778Y-59484198D01*
X158086487Y-59457738D01*
X158106433Y-59432737D01*
X158123622Y-59413038D01*
X158135057Y-59402480D01*
X158137124Y-59401655D01*
X158143209Y-59409082D01*
X158146678Y-59423169D01*
X158148737Y-59432924D01*
X158153393Y-59435722D01*
X158163257Y-59430254D01*
X158180941Y-59415212D01*
X158202908Y-59395005D01*
X158228609Y-59368993D01*
X158233868Y-59362658D01*
X159063681Y-59362658D01*
X159068014Y-59366991D01*
X159072347Y-59362658D01*
X159068014Y-59358325D01*
X159063681Y-59362658D01*
X158233868Y-59362658D01*
X158248255Y-59345326D01*
X159029017Y-59345326D01*
X159033350Y-59349659D01*
X159037683Y-59345326D01*
X159033350Y-59340993D01*
X159029017Y-59345326D01*
X158248255Y-59345326D01*
X158249204Y-59344183D01*
X158261113Y-59325001D01*
X158262357Y-59321437D01*
X158265479Y-59291761D01*
X158261487Y-59263625D01*
X158251751Y-59242579D01*
X158240933Y-59234626D01*
X158227038Y-59223547D01*
X158221633Y-59209840D01*
X158218214Y-59205402D01*
X158211534Y-59217648D01*
X158201526Y-59246715D01*
X158198533Y-59256499D01*
X158187120Y-59290721D01*
X158177363Y-59313266D01*
X158170204Y-59323043D01*
X158166581Y-59318960D01*
X158167434Y-59299927D01*
X158168699Y-59291163D01*
X158173889Y-59258666D01*
X158151590Y-59284664D01*
X158133372Y-59305279D01*
X158109222Y-59331821D01*
X158090188Y-59352317D01*
X158066123Y-59380676D01*
X158044563Y-59410677D01*
X158033413Y-59429692D01*
X158021751Y-59450487D01*
X158014241Y-59456280D01*
X158010392Y-59451471D01*
X158010952Y-59429845D01*
X158025148Y-59398525D01*
X158052662Y-59358097D01*
X158079294Y-59325138D01*
X158109997Y-59284237D01*
X158134488Y-59242400D01*
X158144212Y-59220160D01*
X158161102Y-59184193D01*
X158184192Y-59147334D01*
X158194050Y-59134757D01*
X158334951Y-59134757D01*
X158336000Y-59162102D01*
X158338654Y-59191909D01*
X158342576Y-59219285D01*
X158347427Y-59239341D01*
X158348295Y-59241612D01*
X158360807Y-59264493D01*
X158372635Y-59270372D01*
X158384657Y-59259509D01*
X158388244Y-59253380D01*
X158395421Y-59241884D01*
X158401612Y-59242659D01*
X158411475Y-59256913D01*
X158413307Y-59259880D01*
X158430538Y-59283362D01*
X158447866Y-59301815D01*
X158461929Y-59313049D01*
X158469641Y-59312668D01*
X158475815Y-59303483D01*
X158482546Y-59294632D01*
X158490574Y-59296215D01*
X158504535Y-59309539D01*
X158507145Y-59312329D01*
X158529810Y-59336660D01*
X158535057Y-59314995D01*
X158540304Y-59293330D01*
X158556009Y-59317161D01*
X158573249Y-59335950D01*
X158591604Y-59339014D01*
X158595723Y-59336660D01*
X159011685Y-59336660D01*
X159016018Y-59340993D01*
X159020351Y-59336660D01*
X159016018Y-59332327D01*
X159011685Y-59336660D01*
X158595723Y-59336660D01*
X158613723Y-59326374D01*
X158623408Y-59317706D01*
X158639073Y-59303299D01*
X158645959Y-59300375D01*
X158647670Y-59308294D01*
X158647714Y-59313373D01*
X158649576Y-59327886D01*
X158656629Y-59330488D01*
X158671076Y-59320718D01*
X158688188Y-59304898D01*
X158705972Y-59288908D01*
X158715833Y-59284494D01*
X158721362Y-59290275D01*
X158722025Y-59291899D01*
X158728746Y-59303678D01*
X158737173Y-59303174D01*
X158749894Y-59289246D01*
X158759804Y-59275236D01*
X158780902Y-59244261D01*
X158795538Y-59263665D01*
X158810174Y-59283069D01*
X158825605Y-59259519D01*
X158828488Y-59252285D01*
X159092008Y-59252285D01*
X159095622Y-59263529D01*
X159108702Y-59283213D01*
X159128574Y-59307406D01*
X159132262Y-59311494D01*
X159154789Y-59338293D01*
X159172634Y-59363479D01*
X159182174Y-59381897D01*
X159182455Y-59382870D01*
X159187501Y-59396562D01*
X159191167Y-59393367D01*
X159191617Y-59391476D01*
X159189760Y-59375181D01*
X159181431Y-59351626D01*
X159177151Y-59342584D01*
X159162343Y-59317990D01*
X159143883Y-59293354D01*
X159124677Y-59271760D01*
X159107634Y-59256292D01*
X159095663Y-59250035D01*
X159092008Y-59252285D01*
X158828488Y-59252285D01*
X158831935Y-59243635D01*
X158836603Y-59224002D01*
X159427653Y-59224002D01*
X159431986Y-59228335D01*
X159436319Y-59224002D01*
X159431986Y-59219669D01*
X159427653Y-59224002D01*
X158836603Y-59224002D01*
X158837986Y-59218187D01*
X158841429Y-59198004D01*
X159427653Y-59198004D01*
X159431986Y-59202337D01*
X159436319Y-59198004D01*
X159431986Y-59193671D01*
X159427653Y-59198004D01*
X158841429Y-59198004D01*
X158843180Y-59187742D01*
X158844977Y-59172982D01*
X159421966Y-59172982D01*
X159423320Y-59176339D01*
X159431107Y-59184606D01*
X159432497Y-59185005D01*
X159436219Y-59178300D01*
X159436319Y-59176339D01*
X159429657Y-59168006D01*
X159427141Y-59167673D01*
X159421966Y-59172982D01*
X158844977Y-59172982D01*
X158846940Y-59156867D01*
X158847178Y-59153230D01*
X159421875Y-59153230D01*
X159423065Y-59158382D01*
X159427653Y-59159007D01*
X159434786Y-59155836D01*
X159433430Y-59153230D01*
X159423145Y-59152193D01*
X159421875Y-59153230D01*
X158847178Y-59153230D01*
X158848688Y-59130131D01*
X158847846Y-59112100D01*
X158844897Y-59107011D01*
X159401655Y-59107011D01*
X159408249Y-59115425D01*
X159410321Y-59115677D01*
X159418009Y-59122696D01*
X159418987Y-59128676D01*
X159423615Y-59140209D01*
X159427556Y-59141675D01*
X159433365Y-59134330D01*
X159434331Y-59120010D01*
X159427600Y-59102173D01*
X159417097Y-59098345D01*
X159404075Y-59102368D01*
X159401655Y-59107011D01*
X158844897Y-59107011D01*
X158834794Y-59110050D01*
X158815232Y-59117594D01*
X158809371Y-59120010D01*
X158766843Y-59131490D01*
X158726029Y-59128183D01*
X158682601Y-59109659D01*
X158678045Y-59107011D01*
X158627290Y-59085148D01*
X158577682Y-59080560D01*
X158528953Y-59093245D01*
X158503330Y-59107011D01*
X158460679Y-59127464D01*
X158419823Y-59132084D01*
X158376539Y-59121294D01*
X158373399Y-59120010D01*
X158352759Y-59111704D01*
X158340210Y-59107250D01*
X158339013Y-59107011D01*
X158335842Y-59114763D01*
X158334951Y-59134757D01*
X158194050Y-59134757D01*
X158198186Y-59129480D01*
X158215927Y-59107638D01*
X158226772Y-59090917D01*
X158228482Y-59083525D01*
X158223558Y-59084872D01*
X158223081Y-59088746D01*
X158218518Y-59095628D01*
X158215399Y-59094620D01*
X158205065Y-59097120D01*
X158187347Y-59108794D01*
X158176378Y-59117940D01*
X158149149Y-59140718D01*
X158120099Y-59162728D01*
X158112994Y-59167673D01*
X158091352Y-59184197D01*
X158064284Y-59207539D01*
X158035029Y-59234558D01*
X158006825Y-59262112D01*
X157982910Y-59287060D01*
X157966523Y-59306261D01*
X157961123Y-59314995D01*
X157954407Y-59323414D01*
X157950719Y-59322369D01*
X157948246Y-59309355D01*
X157953226Y-59284870D01*
X157964453Y-59252458D01*
X157980727Y-59215664D01*
X157998116Y-59182737D01*
X158014400Y-59152886D01*
X158021383Y-59136135D01*
X158019505Y-59131247D01*
X158015856Y-59132603D01*
X158000745Y-59137186D01*
X157994572Y-59135593D01*
X157989584Y-59136868D01*
X157989099Y-59140742D01*
X157984016Y-59147266D01*
X157980433Y-59146008D01*
X157972397Y-59145505D01*
X157971767Y-59147775D01*
X157964785Y-59156289D01*
X157952269Y-59163452D01*
X157936914Y-59175996D01*
X157920044Y-59198142D01*
X157912605Y-59211003D01*
X157901161Y-59236667D01*
X157895974Y-59260807D01*
X157895765Y-59291155D01*
X157871441Y-59291155D01*
X157871291Y-59290356D01*
X157867025Y-59280477D01*
X157866507Y-59280331D01*
X157857855Y-59286947D01*
X157842822Y-59304096D01*
X157824398Y-59327730D01*
X157805573Y-59353803D01*
X157789335Y-59378266D01*
X157778674Y-59397071D01*
X157776693Y-59401936D01*
X157770317Y-59414287D01*
X157760466Y-59417099D01*
X157745050Y-59409446D01*
X157721977Y-59390402D01*
X157696863Y-59366600D01*
X157645282Y-59307568D01*
X157633604Y-59287287D01*
X157680714Y-59287287D01*
X157681532Y-59288997D01*
X157694751Y-59309947D01*
X157705521Y-59320309D01*
X157709561Y-59320110D01*
X157706988Y-59311954D01*
X157695382Y-59297458D01*
X157694053Y-59296069D01*
X157686202Y-59288997D01*
X157723279Y-59288997D01*
X157723399Y-59294993D01*
X157731772Y-59309780D01*
X157740196Y-59321494D01*
X157749919Y-59331965D01*
X157751414Y-59329265D01*
X157744454Y-59315600D01*
X157741322Y-59310662D01*
X157755118Y-59310662D01*
X157759451Y-59314995D01*
X157763784Y-59310662D01*
X157759451Y-59306329D01*
X157755118Y-59310662D01*
X157741322Y-59310662D01*
X157730121Y-59295307D01*
X157727977Y-59293330D01*
X157763784Y-59293330D01*
X157768117Y-59297663D01*
X157772450Y-59293330D01*
X157768117Y-59288997D01*
X157763784Y-59293330D01*
X157727977Y-59293330D01*
X157723279Y-59288997D01*
X157686202Y-59288997D01*
X157683011Y-59286123D01*
X157680714Y-59287287D01*
X157633604Y-59287287D01*
X157627104Y-59275998D01*
X157772450Y-59275998D01*
X157776783Y-59280331D01*
X157781116Y-59275998D01*
X157776783Y-59271665D01*
X157772450Y-59275998D01*
X157627104Y-59275998D01*
X157609961Y-59246227D01*
X157589827Y-59180417D01*
X157584899Y-59141675D01*
X157647817Y-59141675D01*
X157649414Y-59193029D01*
X157654508Y-59232523D01*
X157662716Y-59258611D01*
X157673656Y-59269746D01*
X157679344Y-59269474D01*
X157684502Y-59261729D01*
X157685022Y-59258666D01*
X157781116Y-59258666D01*
X157785449Y-59262999D01*
X157789782Y-59258666D01*
X157785449Y-59254333D01*
X157781116Y-59258666D01*
X157685022Y-59258666D01*
X157687946Y-59241434D01*
X157688222Y-59236437D01*
X157800572Y-59236437D01*
X157801758Y-59237001D01*
X157809666Y-59230900D01*
X157811447Y-59228335D01*
X157813655Y-59220233D01*
X157812469Y-59219669D01*
X157804561Y-59225770D01*
X157802781Y-59228335D01*
X157800572Y-59236437D01*
X157688222Y-59236437D01*
X157689855Y-59206906D01*
X157690094Y-59189444D01*
X157740140Y-59189444D01*
X157741167Y-59215688D01*
X157744061Y-59231305D01*
X157748331Y-59234361D01*
X157753486Y-59222924D01*
X157756060Y-59212067D01*
X157759619Y-59185279D01*
X157759764Y-59162286D01*
X157760100Y-59153219D01*
X157878134Y-59153219D01*
X157878193Y-59158865D01*
X157879713Y-59159007D01*
X157886947Y-59153085D01*
X157894879Y-59143842D01*
X157902374Y-59133577D01*
X157897886Y-59135729D01*
X157891607Y-59140570D01*
X157878134Y-59153219D01*
X157760100Y-59153219D01*
X157760346Y-59146577D01*
X157764011Y-59141675D01*
X157769627Y-59134086D01*
X157775370Y-59115276D01*
X157776179Y-59111344D01*
X157928437Y-59111344D01*
X157932770Y-59115677D01*
X157937103Y-59111344D01*
X157933355Y-59107596D01*
X158123931Y-59107596D01*
X158127586Y-59110970D01*
X158140363Y-59103434D01*
X158163830Y-59084476D01*
X158168370Y-59080615D01*
X158184257Y-59062074D01*
X158196398Y-59039235D01*
X158202757Y-59017523D01*
X158201297Y-59002360D01*
X158198744Y-58999713D01*
X158187345Y-59001925D01*
X158171690Y-59016777D01*
X158154282Y-59040950D01*
X158137622Y-59071123D01*
X158127827Y-59093823D01*
X158123931Y-59107596D01*
X157933355Y-59107596D01*
X157932770Y-59107011D01*
X157928437Y-59111344D01*
X157776179Y-59111344D01*
X157776542Y-59109581D01*
X157781068Y-59094012D01*
X157824446Y-59094012D01*
X157828779Y-59098345D01*
X157833112Y-59094012D01*
X157828779Y-59089679D01*
X157964748Y-59089679D01*
X157973106Y-59083984D01*
X157984766Y-59072347D01*
X157994774Y-59059794D01*
X157996118Y-59055015D01*
X157987760Y-59060710D01*
X157976100Y-59072347D01*
X157966092Y-59084901D01*
X157964748Y-59089679D01*
X157828779Y-59089679D01*
X157824446Y-59094012D01*
X157781068Y-59094012D01*
X157786430Y-59075565D01*
X157802486Y-59038207D01*
X157805237Y-59033350D01*
X157859109Y-59033350D01*
X157863442Y-59037683D01*
X157867775Y-59033350D01*
X157863442Y-59029017D01*
X157859109Y-59033350D01*
X157805237Y-59033350D01*
X157810145Y-59024684D01*
X158015097Y-59024684D01*
X158019430Y-59029017D01*
X158023763Y-59024684D01*
X158019430Y-59020351D01*
X158015097Y-59024684D01*
X157810145Y-59024684D01*
X157819962Y-59007352D01*
X158023763Y-59007352D01*
X158028096Y-59011685D01*
X158032429Y-59007352D01*
X158028096Y-59003019D01*
X158023763Y-59007352D01*
X157819962Y-59007352D01*
X157820992Y-59005534D01*
X157830637Y-58992733D01*
X157832085Y-58990020D01*
X158032429Y-58990020D01*
X158036762Y-58994353D01*
X158041095Y-58990020D01*
X158036762Y-58985687D01*
X158032429Y-58990020D01*
X157832085Y-58990020D01*
X157838647Y-58977726D01*
X157837036Y-58968355D01*
X158041095Y-58968355D01*
X158044266Y-58975489D01*
X158046872Y-58974133D01*
X158047910Y-58963848D01*
X158046872Y-58962578D01*
X158041721Y-58963768D01*
X158041095Y-58968355D01*
X157837036Y-58968355D01*
X157836842Y-58967224D01*
X157827716Y-58966038D01*
X157819779Y-58971784D01*
X157809330Y-58985242D01*
X157793772Y-59008683D01*
X157776772Y-59036529D01*
X157759170Y-59069587D01*
X157748830Y-59099038D01*
X157743244Y-59133266D01*
X157741469Y-59154506D01*
X157740140Y-59189444D01*
X157690094Y-59189444D01*
X157690402Y-59166944D01*
X157691194Y-59122257D01*
X157692459Y-59094012D01*
X157711788Y-59094012D01*
X157716121Y-59098345D01*
X157720454Y-59094012D01*
X157716121Y-59089679D01*
X157711788Y-59094012D01*
X157692459Y-59094012D01*
X157693115Y-59079366D01*
X157694682Y-59059076D01*
X157711788Y-59059076D01*
X157717530Y-59067819D01*
X157724787Y-59066815D01*
X157736254Y-59058309D01*
X157737786Y-59054088D01*
X157730753Y-59047218D01*
X157724787Y-59046349D01*
X157713294Y-59053147D01*
X157711788Y-59059076D01*
X157694682Y-59059076D01*
X157695850Y-59043949D01*
X157697707Y-59029744D01*
X157716309Y-59029744D01*
X157718343Y-59032684D01*
X157722489Y-59035711D01*
X157727873Y-59034827D01*
X157736899Y-59028068D01*
X157751968Y-59013468D01*
X157775483Y-58989061D01*
X157788810Y-58975041D01*
X157814822Y-58946808D01*
X157829593Y-58928284D01*
X157834514Y-58917310D01*
X157833912Y-58916360D01*
X158051772Y-58916360D01*
X158052675Y-58932126D01*
X158054925Y-58933984D01*
X158055735Y-58931525D01*
X158057083Y-58909546D01*
X158055735Y-58901194D01*
X158053223Y-58898497D01*
X158051855Y-58910480D01*
X158051772Y-58916360D01*
X157833912Y-58916360D01*
X157830975Y-58911726D01*
X157829885Y-58911252D01*
X157813278Y-58912655D01*
X157791740Y-58924738D01*
X157768308Y-58944198D01*
X157746014Y-58967733D01*
X157727893Y-58992037D01*
X157716980Y-59013809D01*
X157716309Y-59029744D01*
X157697707Y-59029744D01*
X157698201Y-59025965D01*
X157702078Y-59001077D01*
X157701408Y-58989169D01*
X157695275Y-58986275D01*
X157689256Y-58987087D01*
X157673046Y-58998833D01*
X157660559Y-59026309D01*
X157652134Y-59068246D01*
X157648111Y-59123377D01*
X157647817Y-59141675D01*
X157584899Y-59141675D01*
X157584783Y-59140760D01*
X157583377Y-59115904D01*
X157583512Y-59094138D01*
X157585902Y-59072461D01*
X157591262Y-59047874D01*
X157600306Y-59017376D01*
X157613748Y-58977968D01*
X157617427Y-58967791D01*
X157696581Y-58967791D01*
X157697766Y-58968355D01*
X157705674Y-58962255D01*
X157707455Y-58959689D01*
X157709663Y-58951588D01*
X157708478Y-58951023D01*
X157700569Y-58957124D01*
X157698789Y-58959689D01*
X157696581Y-58967791D01*
X157617427Y-58967791D01*
X157632301Y-58926649D01*
X157637674Y-58912027D01*
X157746452Y-58912027D01*
X157750785Y-58916360D01*
X157755118Y-58912027D01*
X157750785Y-58907694D01*
X157746452Y-58912027D01*
X157637674Y-58912027D01*
X157642107Y-58899963D01*
X157643959Y-58894695D01*
X157772450Y-58894695D01*
X157776783Y-58899028D01*
X157781116Y-58894695D01*
X157776783Y-58890362D01*
X157772450Y-58894695D01*
X157643959Y-58894695D01*
X157646213Y-58888284D01*
X157721956Y-58888284D01*
X157726510Y-58886029D01*
X157789782Y-58886029D01*
X157794115Y-58890362D01*
X157798448Y-58886029D01*
X157794115Y-58881696D01*
X157789782Y-58886029D01*
X157726510Y-58886029D01*
X157744010Y-58877363D01*
X157807114Y-58877363D01*
X157811447Y-58881696D01*
X157815780Y-58877363D01*
X157811447Y-58873030D01*
X157807114Y-58877363D01*
X157744010Y-58877363D01*
X157745036Y-58876855D01*
X157762857Y-58868697D01*
X157833112Y-58868697D01*
X157837445Y-58873030D01*
X157841778Y-58868697D01*
X157837445Y-58864364D01*
X157833112Y-58868697D01*
X157762857Y-58868697D01*
X157770990Y-58864974D01*
X157783085Y-58860031D01*
X157850444Y-58860031D01*
X157854776Y-58864364D01*
X157859109Y-58860031D01*
X158041095Y-58860031D01*
X158045428Y-58864364D01*
X158049761Y-58860031D01*
X158045428Y-58855698D01*
X158041095Y-58860031D01*
X157859109Y-58860031D01*
X157854776Y-58855698D01*
X157850444Y-58860031D01*
X157783085Y-58860031D01*
X157790729Y-58856907D01*
X157797874Y-58851365D01*
X157876441Y-58851365D01*
X157880774Y-58855698D01*
X157885107Y-58851365D01*
X157937103Y-58851365D01*
X157941436Y-58855698D01*
X157945769Y-58851365D01*
X157941436Y-58847032D01*
X157937103Y-58851365D01*
X157885107Y-58851365D01*
X157880774Y-58847032D01*
X157876441Y-58851365D01*
X157797874Y-58851365D01*
X157809047Y-58842699D01*
X157893773Y-58842699D01*
X157898106Y-58847032D01*
X157902439Y-58842699D01*
X157898106Y-58838366D01*
X157893773Y-58842699D01*
X157809047Y-58842699D01*
X157811223Y-58841011D01*
X157813763Y-58834477D01*
X157833112Y-58834477D01*
X157837980Y-58838282D01*
X157848904Y-58832512D01*
X157860359Y-58820490D01*
X157862823Y-58816608D01*
X157869735Y-58807313D01*
X158015781Y-58807313D01*
X158017375Y-58818552D01*
X158020333Y-58818687D01*
X158022402Y-58807088D01*
X158021017Y-58802077D01*
X158017169Y-58798794D01*
X158015781Y-58807313D01*
X157869735Y-58807313D01*
X157876768Y-58797856D01*
X157879698Y-58794864D01*
X157957915Y-58794864D01*
X157958323Y-58795036D01*
X157964793Y-58788179D01*
X157974844Y-58771431D01*
X157976100Y-58769038D01*
X157983955Y-58751700D01*
X157985620Y-58743211D01*
X157985211Y-58743040D01*
X157978741Y-58749897D01*
X157968690Y-58766645D01*
X157967434Y-58769038D01*
X157959580Y-58786375D01*
X157957915Y-58794864D01*
X157879698Y-58794864D01*
X157889440Y-58784915D01*
X157899785Y-58773784D01*
X157899782Y-58769326D01*
X157898902Y-58763185D01*
X157906281Y-58749778D01*
X157911554Y-58740968D01*
X158001524Y-58740968D01*
X158010042Y-58742356D01*
X158021282Y-58740762D01*
X158021416Y-58737804D01*
X158009818Y-58735735D01*
X158004806Y-58737120D01*
X158001524Y-58740968D01*
X157911554Y-58740968D01*
X157918124Y-58729992D01*
X157918230Y-58722344D01*
X157907555Y-58727169D01*
X157888407Y-58743506D01*
X157867176Y-58767568D01*
X157848621Y-58795155D01*
X157836241Y-58820515D01*
X157833112Y-58834477D01*
X157813763Y-58834477D01*
X157818627Y-58821962D01*
X157834173Y-58780846D01*
X157862114Y-58740644D01*
X157898196Y-58707092D01*
X157902237Y-58704364D01*
X158006431Y-58704364D01*
X158013176Y-58708652D01*
X158028879Y-58706945D01*
X158046745Y-58700472D01*
X158054604Y-58695653D01*
X158069151Y-58685749D01*
X158075759Y-58682664D01*
X158078029Y-58690411D01*
X158079660Y-58710877D01*
X158080264Y-58736551D01*
X158085903Y-58795109D01*
X158103499Y-58845059D01*
X158123523Y-58877363D01*
X158141107Y-58903709D01*
X158157852Y-58932157D01*
X158158676Y-58933692D01*
X158174835Y-58964022D01*
X158179459Y-58934380D01*
X158185188Y-58915448D01*
X158193638Y-58902711D01*
X158201549Y-58899151D01*
X158205661Y-58907748D01*
X158205749Y-58910344D01*
X158210974Y-58925790D01*
X158222793Y-58943564D01*
X158239836Y-58964022D01*
X158240124Y-58933632D01*
X158244582Y-58905185D01*
X158256677Y-58865150D01*
X158275106Y-58816785D01*
X158298566Y-58763349D01*
X158325754Y-58708102D01*
X158343450Y-58675196D01*
X158363720Y-58636560D01*
X158377554Y-58605476D01*
X158383769Y-58584761D01*
X158383670Y-58579232D01*
X158368281Y-58552757D01*
X158344241Y-58533482D01*
X158318734Y-58526390D01*
X158294684Y-58520603D01*
X158269874Y-58506260D01*
X158267991Y-58504725D01*
X158238138Y-58487495D01*
X158215630Y-58484374D01*
X158284416Y-58484374D01*
X158294436Y-58498953D01*
X158294474Y-58498991D01*
X158310223Y-58506734D01*
X158327481Y-58505699D01*
X158338839Y-58497065D01*
X158340072Y-58491726D01*
X158332012Y-58480997D01*
X158311907Y-58476012D01*
X158290264Y-58476695D01*
X158284416Y-58484374D01*
X158215630Y-58484374D01*
X158206153Y-58483060D01*
X158183253Y-58481710D01*
X158175494Y-58478082D01*
X158180932Y-58472812D01*
X158197624Y-58466535D01*
X158223626Y-58459886D01*
X158256993Y-58453502D01*
X158295781Y-58448016D01*
X158321492Y-58445364D01*
X158363575Y-58441652D01*
X158383655Y-58486188D01*
X158395719Y-58514679D01*
X158403096Y-58539091D01*
X158405243Y-58562485D01*
X158401614Y-58587925D01*
X158391666Y-58618474D01*
X158374854Y-58657193D01*
X158350634Y-58707147D01*
X158340936Y-58726592D01*
X158315404Y-58778322D01*
X158296870Y-58817995D01*
X158284129Y-58848821D01*
X158275974Y-58874009D01*
X158271197Y-58896770D01*
X158268721Y-58918678D01*
X158270820Y-58976323D01*
X158287341Y-59024591D01*
X158318561Y-59064117D01*
X158338806Y-59080142D01*
X158378998Y-59103781D01*
X158413448Y-59113825D01*
X158446454Y-59110809D01*
X158478278Y-59097477D01*
X158520555Y-59071758D01*
X158552779Y-59045888D01*
X158572731Y-59021923D01*
X158578386Y-59004628D01*
X158571549Y-58981295D01*
X158553592Y-58953553D01*
X158528343Y-58925760D01*
X158510671Y-58911304D01*
X158553072Y-58911304D01*
X158554666Y-58922544D01*
X158557624Y-58922678D01*
X158559693Y-58911080D01*
X158558308Y-58906069D01*
X158554460Y-58902786D01*
X158553072Y-58911304D01*
X158510671Y-58911304D01*
X158499634Y-58902275D01*
X158478443Y-58890362D01*
X158570754Y-58890362D01*
X158571247Y-58920008D01*
X158574459Y-58938224D01*
X158578123Y-58942357D01*
X158583049Y-58934380D01*
X158586229Y-58913141D01*
X158587052Y-58890362D01*
X158585936Y-58862938D01*
X158583036Y-58844097D01*
X158579683Y-58838366D01*
X158575560Y-58846242D01*
X158572275Y-58866714D01*
X158570754Y-58890362D01*
X158478443Y-58890362D01*
X158477525Y-58889846D01*
X158457744Y-58877363D01*
X158552388Y-58877363D01*
X158556721Y-58881696D01*
X158561054Y-58877363D01*
X158556721Y-58873030D01*
X158552388Y-58877363D01*
X158457744Y-58877363D01*
X158441021Y-58866810D01*
X158421003Y-58842699D01*
X158509058Y-58842699D01*
X158513391Y-58847032D01*
X158517724Y-58842699D01*
X158513391Y-58838366D01*
X158509058Y-58842699D01*
X158421003Y-58842699D01*
X158415067Y-58835549D01*
X158400928Y-58799652D01*
X158399867Y-58762707D01*
X158413149Y-58728304D01*
X158418167Y-58721375D01*
X158427870Y-58709632D01*
X158428096Y-58711908D01*
X158422877Y-58722972D01*
X158415951Y-58747764D01*
X158414218Y-58777222D01*
X158417823Y-58802800D01*
X158421381Y-58811018D01*
X158429212Y-58817478D01*
X158442544Y-58814928D01*
X158456927Y-58808105D01*
X158477426Y-58799822D01*
X158499069Y-58797703D01*
X158529132Y-58801170D01*
X158533904Y-58801977D01*
X158584991Y-58806065D01*
X158637744Y-58802727D01*
X158672269Y-58799155D01*
X158696815Y-58800466D01*
X158718184Y-58807191D01*
X158723046Y-58809408D01*
X158743688Y-58817940D01*
X158754900Y-58817944D01*
X158761047Y-58811572D01*
X158768218Y-58786538D01*
X158766085Y-58753174D01*
X158756481Y-58721097D01*
X158749382Y-58701865D01*
X158747411Y-58691582D01*
X158747942Y-58691044D01*
X158756828Y-58698410D01*
X158767741Y-58716629D01*
X158777977Y-58739879D01*
X158784831Y-58762338D01*
X158786195Y-58773371D01*
X158778318Y-58810777D01*
X158757552Y-58846960D01*
X158727734Y-58876155D01*
X158711130Y-58886093D01*
X158667434Y-58912866D01*
X158633437Y-58945290D01*
X158611630Y-58980388D01*
X158604477Y-59013422D01*
X158608609Y-59026619D01*
X158622395Y-59042124D01*
X158648107Y-59062173D01*
X158667284Y-59075367D01*
X158699242Y-59096047D01*
X158721845Y-59108140D01*
X158739640Y-59113407D01*
X158757173Y-59113610D01*
X158763953Y-59112829D01*
X158805432Y-59099511D01*
X158845125Y-59073009D01*
X158846527Y-59071475D01*
X159402009Y-59071475D01*
X159404433Y-59084364D01*
X159413842Y-59089679D01*
X159422362Y-59083307D01*
X159421523Y-59072445D01*
X159414886Y-59060605D01*
X159409335Y-59059957D01*
X159402009Y-59071475D01*
X158846527Y-59071475D01*
X158877894Y-59037148D01*
X158888282Y-59020351D01*
X158900030Y-58995210D01*
X158905607Y-58971727D01*
X158906335Y-58942383D01*
X158905310Y-58923416D01*
X158902918Y-58899806D01*
X158898339Y-58876720D01*
X158890445Y-58850960D01*
X158878108Y-58819327D01*
X158860201Y-58778623D01*
X158835627Y-58725709D01*
X158769832Y-58585941D01*
X158778908Y-58536842D01*
X158786117Y-58505097D01*
X158788640Y-58496875D01*
X158832062Y-58496875D01*
X158841813Y-58505973D01*
X158857919Y-58508531D01*
X158875013Y-58502727D01*
X158879962Y-58498659D01*
X158889086Y-58485919D01*
X158890362Y-58481327D01*
X158883170Y-58476086D01*
X158866599Y-58474531D01*
X158848151Y-58476433D01*
X158835330Y-58481560D01*
X158834033Y-58483060D01*
X158832062Y-58496875D01*
X158788640Y-58496875D01*
X158794753Y-58476956D01*
X158799856Y-58464787D01*
X158811554Y-58448270D01*
X158824802Y-58437149D01*
X158835154Y-58434284D01*
X158838366Y-58440002D01*
X158846183Y-58444721D01*
X158866261Y-58447842D01*
X158883862Y-58448564D01*
X158916715Y-58450502D01*
X158950258Y-58455406D01*
X158980173Y-58462256D01*
X159002142Y-58470029D01*
X159011847Y-58477703D01*
X159011971Y-58478872D01*
X159003730Y-58483803D01*
X158983558Y-58486879D01*
X158969159Y-58487393D01*
X158933096Y-58491270D01*
X158909122Y-58503551D01*
X158908698Y-58503928D01*
X158887368Y-58516699D01*
X158860527Y-58525280D01*
X158858680Y-58525602D01*
X158834214Y-58533293D01*
X158817655Y-58550065D01*
X158811113Y-58561465D01*
X158795169Y-58592187D01*
X158863739Y-58728261D01*
X158932308Y-58864336D01*
X158946617Y-58818854D01*
X158956125Y-58789833D01*
X158964773Y-58765411D01*
X158968483Y-58756039D01*
X158974511Y-58736682D01*
X158980376Y-58709418D01*
X158981871Y-58700421D01*
X158985946Y-58677990D01*
X158989906Y-58670515D01*
X158995367Y-58675708D01*
X158997178Y-58678756D01*
X159001918Y-58695593D01*
X159005170Y-58723615D01*
X159006220Y-58756039D01*
X159002859Y-58803200D01*
X158991887Y-58842686D01*
X158970833Y-58881592D01*
X158954333Y-58904949D01*
X158941019Y-58926652D01*
X158934270Y-58945337D01*
X158934052Y-58948279D01*
X158937023Y-58954509D01*
X158946566Y-58948773D01*
X158948551Y-58946690D01*
X159329147Y-58946690D01*
X159356735Y-58985228D01*
X159372171Y-59008737D01*
X159382183Y-59027721D01*
X159384323Y-59035058D01*
X159391312Y-59045008D01*
X159397544Y-59046349D01*
X159405745Y-59044439D01*
X159404687Y-59035635D01*
X159398318Y-59022518D01*
X159383740Y-59001206D01*
X159363066Y-58978005D01*
X159357508Y-58972688D01*
X159329147Y-58946690D01*
X158948551Y-58946690D01*
X158964444Y-58930011D01*
X158964467Y-58929984D01*
X158982271Y-58910623D01*
X158992920Y-58902854D01*
X159000396Y-58904989D01*
X159006416Y-58912211D01*
X159013672Y-58920056D01*
X159020311Y-58918869D01*
X159029085Y-58906364D01*
X159036701Y-58891869D01*
X159300762Y-58891869D01*
X159312195Y-58905536D01*
X159323661Y-58914762D01*
X159367403Y-58951987D01*
X159405185Y-58992297D01*
X159432614Y-59030892D01*
X159436516Y-59038071D01*
X159451583Y-59063065D01*
X159463210Y-59071623D01*
X159472071Y-59064148D01*
X159473760Y-59060276D01*
X159472865Y-59042164D01*
X159461980Y-59015548D01*
X159443295Y-58984258D01*
X159418999Y-58952123D01*
X159400083Y-58931432D01*
X159377671Y-58911383D01*
X159446663Y-58911383D01*
X159448836Y-58921471D01*
X159459528Y-58944622D01*
X159470955Y-58966970D01*
X159499405Y-59040225D01*
X159511704Y-59119123D01*
X159510258Y-59180672D01*
X159507626Y-59211805D01*
X159507514Y-59228462D01*
X159510333Y-59233370D01*
X159516493Y-59229256D01*
X159517427Y-59228335D01*
X159526390Y-59212561D01*
X159534829Y-59186790D01*
X159538360Y-59170628D01*
X159542503Y-59107306D01*
X159533488Y-59044926D01*
X159512504Y-58987601D01*
X159480743Y-58939446D01*
X159467474Y-58925681D01*
X159452909Y-58913180D01*
X159446663Y-58911383D01*
X159377671Y-58911383D01*
X159365183Y-58900211D01*
X159345503Y-58887836D01*
X159457176Y-58887836D01*
X159458354Y-58890960D01*
X159466719Y-58898645D01*
X159470813Y-58889893D01*
X159470983Y-58885517D01*
X159466719Y-58876592D01*
X159462175Y-58877450D01*
X159457176Y-58887836D01*
X159345503Y-58887836D01*
X159335945Y-58881826D01*
X159313691Y-58876946D01*
X159302751Y-58882153D01*
X159300762Y-58891869D01*
X159036701Y-58891869D01*
X159041209Y-58883289D01*
X159062311Y-58834078D01*
X159077695Y-58782934D01*
X159081131Y-58763260D01*
X159369879Y-58763260D01*
X159371069Y-58768412D01*
X159375657Y-58769038D01*
X159382790Y-58765867D01*
X159381434Y-58763260D01*
X159371150Y-58762223D01*
X159369879Y-58763260D01*
X159081131Y-58763260D01*
X159084158Y-58745929D01*
X159369879Y-58745929D01*
X159371069Y-58751080D01*
X159375657Y-58751706D01*
X159382790Y-58748535D01*
X159381434Y-58745929D01*
X159371150Y-58744891D01*
X159369879Y-58745929D01*
X159084158Y-58745929D01*
X159085987Y-58735455D01*
X159086181Y-58704914D01*
X159123813Y-58704914D01*
X159135795Y-58706282D01*
X159141675Y-58706365D01*
X159157441Y-58705462D01*
X159159299Y-58703212D01*
X159156841Y-58702402D01*
X159134862Y-58701055D01*
X159126510Y-58702402D01*
X159123813Y-58704914D01*
X159086181Y-58704914D01*
X159086211Y-58700171D01*
X159084570Y-58677674D01*
X159088094Y-58667517D01*
X159098530Y-58665051D01*
X159099397Y-58665046D01*
X159121489Y-58669161D01*
X159134321Y-58674414D01*
X159150486Y-58680663D01*
X159156021Y-58675022D01*
X159151990Y-58655964D01*
X159151190Y-58653563D01*
X159540952Y-58653563D01*
X159545714Y-58669044D01*
X159552137Y-58679024D01*
X159555174Y-58679069D01*
X159554694Y-58669377D01*
X159550034Y-58659196D01*
X159542372Y-58649016D01*
X159540952Y-58653563D01*
X159151190Y-58653563D01*
X159150432Y-58651286D01*
X159145931Y-58634715D01*
X159531644Y-58634715D01*
X159535977Y-58639048D01*
X159540310Y-58634715D01*
X159535977Y-58630382D01*
X159531644Y-58634715D01*
X159145931Y-58634715D01*
X159144893Y-58630894D01*
X159141912Y-58617383D01*
X159522978Y-58617383D01*
X159527311Y-58621716D01*
X159531644Y-58617383D01*
X159527311Y-58613050D01*
X159522978Y-58617383D01*
X159141912Y-58617383D01*
X159137941Y-58599383D01*
X159137791Y-58598607D01*
X159508535Y-58598607D01*
X159509725Y-58603759D01*
X159514312Y-58604384D01*
X159521446Y-58601213D01*
X159520090Y-58598607D01*
X159509805Y-58597570D01*
X159508535Y-58598607D01*
X159137791Y-58598607D01*
X159133892Y-58578386D01*
X159496981Y-58578386D01*
X159500151Y-58585519D01*
X159502758Y-58584163D01*
X159503795Y-58573879D01*
X159502758Y-58572609D01*
X159497606Y-58573798D01*
X159496981Y-58578386D01*
X159133892Y-58578386D01*
X159131385Y-58565387D01*
X159479649Y-58565387D01*
X159483982Y-58569720D01*
X159488315Y-58565387D01*
X159483982Y-58561054D01*
X159479649Y-58565387D01*
X159131385Y-58565387D01*
X159130877Y-58562750D01*
X159129277Y-58553678D01*
X159128105Y-58548055D01*
X159462317Y-58548055D01*
X159466650Y-58552388D01*
X159470983Y-58548055D01*
X159466650Y-58543722D01*
X159462317Y-58548055D01*
X159128105Y-58548055D01*
X159122689Y-58522057D01*
X159427653Y-58522057D01*
X159431986Y-58526390D01*
X159436319Y-58522057D01*
X159431986Y-58517724D01*
X159427653Y-58522057D01*
X159122689Y-58522057D01*
X159121933Y-58518430D01*
X159118319Y-58505732D01*
X159387267Y-58505732D01*
X159388656Y-58509058D01*
X159400136Y-58517401D01*
X159402678Y-58517724D01*
X159407376Y-58512385D01*
X159405988Y-58509058D01*
X159394508Y-58500716D01*
X159391966Y-58500392D01*
X159387267Y-58505732D01*
X159118319Y-58505732D01*
X159115566Y-58496059D01*
X159358325Y-58496059D01*
X159362658Y-58500392D01*
X159366991Y-58496059D01*
X159362658Y-58491726D01*
X159358325Y-58496059D01*
X159115566Y-58496059D01*
X159113439Y-58488585D01*
X159105325Y-58469272D01*
X159103228Y-58466335D01*
X159091342Y-58449915D01*
X159094067Y-58442115D01*
X159111982Y-58442147D01*
X159120010Y-58443492D01*
X159142416Y-58445275D01*
X159149308Y-58439333D01*
X159140673Y-58425697D01*
X159131922Y-58417242D01*
X159119352Y-58401536D01*
X159103074Y-58375216D01*
X159086305Y-58343555D01*
X159083913Y-58338601D01*
X159062886Y-58300917D01*
X159038141Y-58266464D01*
X159012556Y-58238447D01*
X158989010Y-58220069D01*
X158972318Y-58214415D01*
X158956507Y-58218178D01*
X158933540Y-58227549D01*
X158926586Y-58230951D01*
X158872552Y-58252977D01*
X158802094Y-58272250D01*
X158714884Y-58288855D01*
X158695377Y-58291867D01*
X158600051Y-58306086D01*
X158594853Y-58344744D01*
X158591667Y-58366973D01*
X158589877Y-58372908D01*
X158588761Y-58363456D01*
X158588221Y-58353071D01*
X158585528Y-58329803D01*
X158580897Y-58313861D01*
X158580420Y-58313058D01*
X158569153Y-58307421D01*
X158545597Y-58301802D01*
X158514754Y-58297380D01*
X158513391Y-58297240D01*
X158464596Y-58290394D01*
X158408998Y-58279607D01*
X158353285Y-58266407D01*
X158304145Y-58252319D01*
X158280665Y-58244102D01*
X158251341Y-58236141D01*
X158226174Y-58238800D01*
X158200244Y-58253488D01*
X158176691Y-58273852D01*
X158160061Y-58291179D01*
X158138244Y-58316097D01*
X158113828Y-58345366D01*
X158089400Y-58375746D01*
X158067548Y-58403996D01*
X158050860Y-58426877D01*
X158041922Y-58441147D01*
X158041095Y-58443668D01*
X158048086Y-58443909D01*
X158065465Y-58438352D01*
X158071363Y-58435982D01*
X158101631Y-58423335D01*
X158085582Y-58455364D01*
X158075505Y-58480056D01*
X158064311Y-58514430D01*
X158054368Y-58551188D01*
X158054081Y-58552388D01*
X158044020Y-58591071D01*
X158032611Y-58629527D01*
X158022530Y-58658867D01*
X158013373Y-58683180D01*
X158007542Y-58700042D01*
X158006431Y-58704364D01*
X157902237Y-58704364D01*
X157909321Y-58699582D01*
X157944747Y-58676138D01*
X157964865Y-58659580D01*
X157969829Y-58650425D01*
X157959794Y-58649187D01*
X157934912Y-58656384D01*
X157900575Y-58670228D01*
X157842051Y-58702257D01*
X157795988Y-58742931D01*
X157759988Y-58794915D01*
X157733352Y-58855983D01*
X157721956Y-58888284D01*
X157646213Y-58888284D01*
X157653572Y-58867352D01*
X157661681Y-58841391D01*
X157665272Y-58825947D01*
X157665080Y-58823434D01*
X157654112Y-58823302D01*
X157637412Y-58834332D01*
X157618950Y-58853323D01*
X157606404Y-58870754D01*
X157586131Y-58903361D01*
X157583631Y-58822547D01*
X157584343Y-58776294D01*
X157607796Y-58776294D01*
X157608357Y-58795969D01*
X157612177Y-58800756D01*
X157622464Y-58793103D01*
X157625843Y-58790055D01*
X157641540Y-58770740D01*
X157655577Y-58745589D01*
X157656597Y-58743216D01*
X157685716Y-58695642D01*
X157731177Y-58653558D01*
X157793029Y-58616924D01*
X157846009Y-58594537D01*
X157867046Y-58586111D01*
X157871898Y-58582412D01*
X157862101Y-58583275D01*
X157841356Y-58584033D01*
X157829247Y-58579129D01*
X157829092Y-58578894D01*
X157830919Y-58571185D01*
X157837762Y-58569720D01*
X157854934Y-58565484D01*
X157876588Y-58555253D01*
X157877265Y-58554856D01*
X157902427Y-58539993D01*
X157882935Y-58529165D01*
X157870953Y-58521267D01*
X157874084Y-58518275D01*
X157878341Y-58518031D01*
X157898825Y-58512859D01*
X157926098Y-58500340D01*
X157953493Y-58484049D01*
X157974343Y-58467562D01*
X157976320Y-58465485D01*
X157986729Y-58445688D01*
X157994145Y-58415745D01*
X157995735Y-58402988D01*
X157999842Y-58357404D01*
X157974187Y-58392067D01*
X157956829Y-58411517D01*
X157935154Y-58430440D01*
X157912738Y-58446488D01*
X157893153Y-58457307D01*
X157879975Y-58460548D01*
X157876441Y-58456369D01*
X157882396Y-58444659D01*
X157897438Y-58427218D01*
X157905982Y-58418984D01*
X157930944Y-58388127D01*
X157948986Y-58350348D01*
X157949213Y-58349650D01*
X157956860Y-58325203D01*
X157958828Y-58314522D01*
X157954866Y-58314916D01*
X157946620Y-58321970D01*
X157933949Y-58337347D01*
X157917568Y-58362325D01*
X157904006Y-58386052D01*
X157874669Y-58432483D01*
X157840464Y-58467498D01*
X157795495Y-58496980D01*
X157789782Y-58500062D01*
X157742472Y-58526398D01*
X157707868Y-58548848D01*
X157682551Y-58569879D01*
X157663845Y-58590982D01*
X157648277Y-58618403D01*
X157633033Y-58656950D01*
X157619969Y-58700484D01*
X157610942Y-58742868D01*
X157607796Y-58776294D01*
X157584343Y-58776294D01*
X157584660Y-58755703D01*
X157592599Y-58700547D01*
X157595668Y-58688225D01*
X157607635Y-58641375D01*
X157613929Y-58608939D01*
X157614718Y-58589012D01*
X157610165Y-58579687D01*
X157605231Y-58578386D01*
X157589342Y-58584625D01*
X157564660Y-58601962D01*
X157533662Y-58628329D01*
X157498825Y-58661655D01*
X157471697Y-58689940D01*
X157426592Y-58738707D01*
X157426265Y-58669379D01*
X157449845Y-58669379D01*
X157505028Y-58616539D01*
X157533649Y-58590495D01*
X157561136Y-58567795D01*
X157582686Y-58552343D01*
X157587282Y-58549700D01*
X157609324Y-58540341D01*
X157641332Y-58529141D01*
X157676466Y-58518490D01*
X157677246Y-58518273D01*
X157711375Y-58507714D01*
X157741541Y-58496458D01*
X157761468Y-58486859D01*
X157762089Y-58486462D01*
X157784041Y-58472078D01*
X157763080Y-58461379D01*
X157717851Y-58446797D01*
X157668295Y-58444746D01*
X157647036Y-58448135D01*
X157621743Y-58452716D01*
X157610028Y-58452209D01*
X157613067Y-58447253D01*
X157630426Y-58439107D01*
X157649536Y-58435081D01*
X157680978Y-58432064D01*
X157719763Y-58430434D01*
X157747010Y-58430302D01*
X157792508Y-58430074D01*
X157824474Y-58427184D01*
X157846679Y-58420019D01*
X157862890Y-58406968D01*
X157876878Y-58386420D01*
X157885008Y-58371301D01*
X157891413Y-58356738D01*
X157886840Y-58353614D01*
X157875258Y-58356473D01*
X157826289Y-58366647D01*
X157781968Y-58366107D01*
X157763784Y-58363037D01*
X157724787Y-58354970D01*
X157764867Y-58354020D01*
X157810366Y-58350992D01*
X157844015Y-58343177D01*
X157871047Y-58328699D01*
X157895090Y-58307349D01*
X157913637Y-58286204D01*
X157925745Y-58268500D01*
X157928437Y-58261033D01*
X157924690Y-58249981D01*
X157915381Y-58252981D01*
X157903414Y-58268958D01*
X157902497Y-58270637D01*
X157890523Y-58284923D01*
X157879827Y-58283479D01*
X157871827Y-58267904D01*
X157867939Y-58239799D01*
X157867775Y-58231420D01*
X157868107Y-58226692D01*
X157885792Y-58226692D01*
X157887385Y-58237932D01*
X157890343Y-58238066D01*
X157891258Y-58232935D01*
X158001105Y-58232935D01*
X158001375Y-58250577D01*
X158007532Y-58272054D01*
X158019979Y-58302058D01*
X158039006Y-58343340D01*
X158053005Y-58368733D01*
X158062310Y-58378830D01*
X158063516Y-58379069D01*
X158069370Y-58372463D01*
X158075840Y-58361586D01*
X158080304Y-58343384D01*
X158071812Y-58324993D01*
X158062315Y-58302158D01*
X158058796Y-58274051D01*
X158061499Y-58248146D01*
X158068826Y-58233480D01*
X158089577Y-58223939D01*
X158115964Y-58227082D01*
X158134585Y-58236636D01*
X158149621Y-58245053D01*
X158161975Y-58242863D01*
X158175145Y-58233510D01*
X158196352Y-58216828D01*
X158157709Y-58189077D01*
X158115204Y-58164836D01*
X158077331Y-58155720D01*
X158045408Y-58161519D01*
X158020753Y-58182024D01*
X158005772Y-58213196D01*
X158001105Y-58232935D01*
X157891258Y-58232935D01*
X157892412Y-58226467D01*
X157891027Y-58221456D01*
X157887179Y-58218173D01*
X157885792Y-58226692D01*
X157868107Y-58226692D01*
X157869790Y-58202709D01*
X157870323Y-58201416D01*
X157893773Y-58201416D01*
X157898106Y-58205749D01*
X157902439Y-58201416D01*
X157898106Y-58197083D01*
X157893773Y-58201416D01*
X157870323Y-58201416D01*
X157877952Y-58182894D01*
X157893262Y-58165831D01*
X157909355Y-58147497D01*
X157914030Y-58135092D01*
X157906971Y-58131080D01*
X157897403Y-58133557D01*
X157886978Y-58143479D01*
X157872545Y-58164501D01*
X157858030Y-58190555D01*
X157834144Y-58233319D01*
X157812116Y-58261561D01*
X157789494Y-58277546D01*
X157763822Y-58283539D01*
X157757084Y-58283743D01*
X157705519Y-58288562D01*
X157659119Y-58304226D01*
X157614072Y-58332548D01*
X157568432Y-58373460D01*
X157520164Y-58427210D01*
X157486253Y-58478184D01*
X157464921Y-58529938D01*
X157454391Y-58586028D01*
X157453066Y-58604384D01*
X157449845Y-58669379D01*
X157426265Y-58669379D01*
X157426201Y-58655786D01*
X157430497Y-58576645D01*
X157445220Y-58508382D01*
X157471907Y-58447000D01*
X157512099Y-58388499D01*
X157542116Y-58354404D01*
X157594814Y-58306337D01*
X157650971Y-58271572D01*
X157694740Y-58253336D01*
X157744304Y-58230740D01*
X157784608Y-58202116D01*
X157813587Y-58169675D01*
X157829173Y-58135632D01*
X157830489Y-58107928D01*
X157825384Y-58081333D01*
X157818218Y-58049834D01*
X157816240Y-58041941D01*
X157814107Y-58018005D01*
X157868270Y-58018005D01*
X157874245Y-58059199D01*
X157880883Y-58075970D01*
X157896717Y-58099542D01*
X157917354Y-58114803D01*
X157946104Y-58122895D01*
X157986278Y-58124964D01*
X158019028Y-58123683D01*
X158054354Y-58120848D01*
X158083029Y-58117214D01*
X158100684Y-58113393D01*
X158103843Y-58111803D01*
X158106279Y-58099339D01*
X158102078Y-58080936D01*
X158101581Y-58077877D01*
X158123244Y-58077877D01*
X158124792Y-58088350D01*
X158138640Y-58119887D01*
X158168338Y-58151020D01*
X158212410Y-58180783D01*
X158269382Y-58208213D01*
X158337781Y-58232345D01*
X158350745Y-58236138D01*
X158429799Y-58255493D01*
X158504434Y-58266547D01*
X158580093Y-58269603D01*
X158662220Y-58264966D01*
X158727484Y-58257163D01*
X158784906Y-58246189D01*
X158843542Y-58229779D01*
X158900239Y-58209317D01*
X158910260Y-58204826D01*
X159029186Y-58204826D01*
X159052933Y-58229498D01*
X159070078Y-58244911D01*
X159081986Y-58248040D01*
X159089679Y-58243983D01*
X159119579Y-58227663D01*
X159145829Y-58227083D01*
X159166355Y-58241850D01*
X159175910Y-58260239D01*
X159180275Y-58277675D01*
X159178283Y-58293592D01*
X159168454Y-58314066D01*
X159158934Y-58329850D01*
X159143995Y-58356177D01*
X159138735Y-58372854D01*
X159141985Y-58383751D01*
X159142487Y-58384379D01*
X159151515Y-58393278D01*
X159159589Y-58393691D01*
X159169245Y-58383612D01*
X159183018Y-58361035D01*
X159191671Y-58345472D01*
X159213383Y-58296722D01*
X159220252Y-58255680D01*
X159212302Y-58221139D01*
X159194338Y-58196416D01*
X159162786Y-58176085D01*
X159124406Y-58171499D01*
X159078984Y-58182644D01*
X159065932Y-58188146D01*
X159029186Y-58204826D01*
X158910260Y-58204826D01*
X158951845Y-58186190D01*
X158995207Y-58161783D01*
X159009742Y-58150733D01*
X159246957Y-58150733D01*
X159250220Y-58157536D01*
X159262104Y-58172126D01*
X159266546Y-58177017D01*
X159280097Y-58195587D01*
X159285108Y-58210798D01*
X159284671Y-58213175D01*
X159287192Y-58226344D01*
X159298852Y-58245608D01*
X159305415Y-58253695D01*
X159322888Y-58278210D01*
X159334905Y-58303360D01*
X159336497Y-58308998D01*
X159341904Y-58327618D01*
X159350823Y-58339166D01*
X159367511Y-58346419D01*
X159396224Y-58352154D01*
X159404698Y-58353507D01*
X159449318Y-58360504D01*
X159399476Y-58358954D01*
X159368614Y-58359440D01*
X159352622Y-58365180D01*
X159349219Y-58378945D01*
X159356123Y-58403509D01*
X159358210Y-58409097D01*
X159362896Y-58419615D01*
X159369644Y-58426120D01*
X159382098Y-58429467D01*
X159403901Y-58430512D01*
X159438698Y-58430110D01*
X159447036Y-58429941D01*
X159488376Y-58430313D01*
X159523892Y-58432892D01*
X159548490Y-58437262D01*
X159552345Y-58438588D01*
X159570123Y-58447686D01*
X159572244Y-58452807D01*
X159560138Y-58452867D01*
X159539736Y-58448132D01*
X159511205Y-58443508D01*
X159484153Y-58444456D01*
X159483982Y-58444489D01*
X159456041Y-58451377D01*
X159431165Y-58460047D01*
X159414447Y-58468501D01*
X159410321Y-58473361D01*
X159418681Y-58483822D01*
X159442898Y-58496158D01*
X159481681Y-58509746D01*
X159492382Y-58512941D01*
X159557636Y-58536277D01*
X159613333Y-58566916D01*
X159666808Y-58609011D01*
X159674633Y-58616146D01*
X159699015Y-58638406D01*
X159718155Y-58655311D01*
X159728843Y-58664047D01*
X159729935Y-58664655D01*
X159731012Y-58656918D01*
X159730837Y-58636104D01*
X159729466Y-58606420D01*
X159729113Y-58600721D01*
X159719975Y-58540545D01*
X159699579Y-58485368D01*
X159666152Y-58431483D01*
X159624374Y-58382005D01*
X159579574Y-58338853D01*
X159538174Y-58309888D01*
X159496955Y-58293279D01*
X159457984Y-58287416D01*
X159430695Y-58285952D01*
X159410029Y-58284795D01*
X159404159Y-58284439D01*
X159386867Y-58275408D01*
X159366614Y-58251717D01*
X159344994Y-58215429D01*
X159334952Y-58194907D01*
X159314780Y-58157465D01*
X159296120Y-58136536D01*
X159278162Y-58131461D01*
X159264611Y-58137700D01*
X159251509Y-58147515D01*
X159246957Y-58150733D01*
X159009742Y-58150733D01*
X159027173Y-58137482D01*
X159042662Y-58118621D01*
X159049946Y-58098998D01*
X159053972Y-58075799D01*
X159054126Y-58067093D01*
X159076131Y-58067093D01*
X159076680Y-58114756D01*
X159111344Y-58120026D01*
X159156975Y-58124940D01*
X159200461Y-58126042D01*
X159236949Y-58123438D01*
X159261587Y-58117231D01*
X159262525Y-58116775D01*
X159290155Y-58093722D01*
X159308346Y-58059809D01*
X159316394Y-58019144D01*
X159313593Y-57975839D01*
X159299238Y-57934002D01*
X159295154Y-57926572D01*
X159267032Y-57886079D01*
X159235016Y-57857032D01*
X159192724Y-57833728D01*
X159189896Y-57832465D01*
X159165041Y-57821947D01*
X159150882Y-57818416D01*
X159142378Y-57821600D01*
X159135725Y-57829525D01*
X159127678Y-57843261D01*
X159129039Y-57853847D01*
X159142004Y-57864652D01*
X159167603Y-57878463D01*
X159199951Y-57900264D01*
X159224848Y-57927531D01*
X159240697Y-57956871D01*
X159245904Y-57984887D01*
X159238871Y-58008185D01*
X159232062Y-58015600D01*
X159221936Y-58020845D01*
X159207024Y-58021147D01*
X159183067Y-58016138D01*
X159158597Y-58009263D01*
X159127091Y-58000409D01*
X159107789Y-57996690D01*
X159096414Y-57997882D01*
X159088686Y-58003762D01*
X159087159Y-58005532D01*
X159080202Y-58022966D01*
X159076464Y-58051514D01*
X159076131Y-58067093D01*
X159054126Y-58067093D01*
X159054341Y-58054967D01*
X159050655Y-58042446D01*
X159047860Y-58041095D01*
X159037612Y-58046841D01*
X159022164Y-58060858D01*
X159020433Y-58062673D01*
X159002804Y-58078395D01*
X158976211Y-58098732D01*
X158946937Y-58118928D01*
X158855420Y-58168578D01*
X158758879Y-58201736D01*
X158657873Y-58218320D01*
X158552964Y-58218245D01*
X158444710Y-58201429D01*
X158425272Y-58196710D01*
X158363619Y-58177273D01*
X158300885Y-58151051D01*
X158242398Y-58120651D01*
X158193488Y-58088682D01*
X158176726Y-58075100D01*
X158149811Y-58054192D01*
X158132315Y-58047586D01*
X158123654Y-58055431D01*
X158123244Y-58077877D01*
X158101581Y-58077877D01*
X158097740Y-58054252D01*
X158102447Y-58039807D01*
X158106839Y-58022447D01*
X158097440Y-58006449D01*
X158089090Y-57998442D01*
X158079726Y-57995102D01*
X158064838Y-57996469D01*
X158039916Y-58002578D01*
X158023546Y-58007074D01*
X157984096Y-58016761D01*
X157958361Y-58019098D01*
X157943960Y-58013154D01*
X157938511Y-57998000D01*
X157939453Y-57974257D01*
X157950961Y-57934457D01*
X157976396Y-57902556D01*
X158017104Y-57876929D01*
X158021597Y-57874859D01*
X158046042Y-57862746D01*
X158056364Y-57852829D01*
X158054689Y-57841280D01*
X158046909Y-57829338D01*
X158037698Y-57819768D01*
X158026012Y-57818319D01*
X158005452Y-57824419D01*
X158002759Y-57825387D01*
X157959316Y-57848642D01*
X157919503Y-57883434D01*
X157889512Y-57924157D01*
X157885869Y-57931197D01*
X157872224Y-57973058D01*
X157868270Y-58018005D01*
X157814107Y-58018005D01*
X157811845Y-57992619D01*
X157821290Y-57939688D01*
X157842967Y-57887401D01*
X157875268Y-57840006D01*
X157903132Y-57812194D01*
X157919467Y-57796742D01*
X157927977Y-57785358D01*
X157928330Y-57783842D01*
X157921640Y-57775154D01*
X157905031Y-57761952D01*
X157897999Y-57757204D01*
X157867775Y-57737626D01*
X157867775Y-57607716D01*
X157867775Y-57542658D01*
X157904512Y-57542658D01*
X157904574Y-57567198D01*
X157906117Y-57600349D01*
X157907384Y-57618302D01*
X157913098Y-57666623D01*
X157922597Y-57700515D01*
X157937666Y-57722766D01*
X157960092Y-57736163D01*
X157987149Y-57742812D01*
X158011262Y-57749598D01*
X158029413Y-57763803D01*
X158044410Y-57784172D01*
X158054697Y-57801246D01*
X158063629Y-57819764D01*
X158072384Y-57843075D01*
X158082140Y-57874528D01*
X158094076Y-57917473D01*
X158102760Y-57950102D01*
X158120278Y-57986923D01*
X158152281Y-58024987D01*
X158196157Y-58062683D01*
X158249296Y-58098402D01*
X158309086Y-58130535D01*
X158372916Y-58157470D01*
X158438175Y-58177599D01*
X158487703Y-58187440D01*
X158526837Y-58192837D01*
X158549984Y-58194925D01*
X158558245Y-58193303D01*
X158552717Y-58187569D01*
X158534501Y-58177323D01*
X158526614Y-58173251D01*
X158477690Y-58144502D01*
X158444837Y-58116060D01*
X158436100Y-58101757D01*
X158465728Y-58101757D01*
X158468899Y-58108890D01*
X158471506Y-58107534D01*
X158472543Y-58097250D01*
X158471506Y-58095980D01*
X158466354Y-58097169D01*
X158465728Y-58101757D01*
X158436100Y-58101757D01*
X158426865Y-58086639D01*
X158425908Y-58081068D01*
X158442709Y-58081068D01*
X158444063Y-58084425D01*
X158451851Y-58092692D01*
X158453241Y-58093091D01*
X158456963Y-58086386D01*
X158457062Y-58084425D01*
X158451430Y-58077380D01*
X158496059Y-58077380D01*
X158497640Y-58105567D01*
X158504559Y-58124445D01*
X158520085Y-58141912D01*
X158524361Y-58145798D01*
X158559308Y-58166476D01*
X158598171Y-58170694D01*
X158638781Y-58158223D01*
X158639222Y-58157996D01*
X158663977Y-58140092D01*
X158677586Y-58115576D01*
X158682299Y-58080025D01*
X158682378Y-58073164D01*
X158676589Y-58041095D01*
X158708376Y-58041095D01*
X158715395Y-58048783D01*
X158721375Y-58049761D01*
X158732907Y-58045082D01*
X158734374Y-58041095D01*
X158727355Y-58033407D01*
X158721375Y-58032429D01*
X158709843Y-58037109D01*
X158708376Y-58041095D01*
X158676589Y-58041095D01*
X158675339Y-58034171D01*
X158656302Y-58003441D01*
X158628382Y-57983260D01*
X158594697Y-57975914D01*
X158559631Y-57983143D01*
X158524459Y-58003643D01*
X158504091Y-58030689D01*
X158496304Y-58067573D01*
X158496059Y-58077380D01*
X158451430Y-58077380D01*
X158450400Y-58076092D01*
X158447885Y-58075759D01*
X158442709Y-58081068D01*
X158425908Y-58081068D01*
X158422398Y-58060631D01*
X158425345Y-58041095D01*
X158448396Y-58041095D01*
X158455415Y-58048783D01*
X158461395Y-58049761D01*
X158472928Y-58045082D01*
X158474394Y-58041095D01*
X158467375Y-58033407D01*
X158461395Y-58032429D01*
X158449863Y-58037109D01*
X158448396Y-58041095D01*
X158425345Y-58041095D01*
X158427054Y-58029764D01*
X158440277Y-58012290D01*
X158460953Y-58009498D01*
X158465575Y-58010715D01*
X158483144Y-58010262D01*
X158504983Y-57997258D01*
X158513955Y-57989767D01*
X158535597Y-57973329D01*
X158556714Y-57965400D01*
X158585536Y-57963130D01*
X158591022Y-57963101D01*
X158622756Y-57965006D01*
X158645475Y-57972426D01*
X158666068Y-57986933D01*
X158694924Y-58004754D01*
X158720684Y-58010764D01*
X158743323Y-58015530D01*
X158757507Y-58032613D01*
X158757932Y-58033480D01*
X158764943Y-58061551D01*
X158757448Y-58088804D01*
X158734646Y-58116646D01*
X158695733Y-58146486D01*
X158692193Y-58148811D01*
X158663231Y-58167301D01*
X158638749Y-58182275D01*
X158623288Y-58190970D01*
X158621716Y-58191697D01*
X158617713Y-58195087D01*
X158627411Y-58195526D01*
X158647524Y-58193502D01*
X158674764Y-58189503D01*
X158705845Y-58184018D01*
X158737480Y-58177533D01*
X158766384Y-58170538D01*
X158769038Y-58169818D01*
X158832273Y-58148509D01*
X158894040Y-58120465D01*
X158951285Y-58087660D01*
X159000952Y-58052067D01*
X159039984Y-58015663D01*
X159065325Y-57980419D01*
X159066788Y-57977460D01*
X159076819Y-57951420D01*
X159086645Y-57918259D01*
X159090640Y-57901485D01*
X159101793Y-57860044D01*
X159116663Y-57819540D01*
X159133160Y-57784758D01*
X159149197Y-57760486D01*
X159154447Y-57755248D01*
X159166011Y-57746677D01*
X159177921Y-57742266D01*
X159197178Y-57739954D01*
X159209250Y-57739106D01*
X159228530Y-57732033D01*
X159248763Y-57716580D01*
X159250414Y-57714855D01*
X159260221Y-57702909D01*
X159266446Y-57689930D01*
X159269893Y-57671796D01*
X159271365Y-57644386D01*
X159271665Y-57605842D01*
X159271665Y-57519759D01*
X159247833Y-57524416D01*
X159226996Y-57527625D01*
X159195856Y-57531455D01*
X159163340Y-57534859D01*
X159111087Y-57542861D01*
X159074764Y-57555546D01*
X159053523Y-57573247D01*
X159050088Y-57579311D01*
X159046415Y-57595533D01*
X159043576Y-57623078D01*
X159042202Y-57655459D01*
X159037994Y-57711762D01*
X159027777Y-57760681D01*
X159012632Y-57800568D01*
X158993641Y-57829778D01*
X158971885Y-57846663D01*
X158948445Y-57849576D01*
X158924405Y-57836871D01*
X158923541Y-57836101D01*
X158911191Y-57815258D01*
X158908700Y-57783132D01*
X158916019Y-57738371D01*
X158919445Y-57724787D01*
X158926836Y-57701725D01*
X158951399Y-57701725D01*
X158960703Y-57715046D01*
X158974855Y-57724163D01*
X158996871Y-57734848D01*
X159007945Y-57735682D01*
X159011545Y-57726446D01*
X159011685Y-57721845D01*
X159004567Y-57707778D01*
X158988108Y-57695336D01*
X158969649Y-57688884D01*
X158959040Y-57690524D01*
X158951399Y-57701725D01*
X158926836Y-57701725D01*
X158933254Y-57681698D01*
X158951462Y-57643862D01*
X158977475Y-57604955D01*
X158998199Y-57578523D01*
X159036445Y-57531568D01*
X159018837Y-57498187D01*
X158991087Y-57446880D01*
X158968823Y-57408471D01*
X158952603Y-57383867D01*
X158942986Y-57373974D01*
X158942186Y-57373814D01*
X158927016Y-57378801D01*
X158903069Y-57391715D01*
X158874965Y-57409485D01*
X158847323Y-57429042D01*
X158824763Y-57447314D01*
X158812873Y-57459764D01*
X158798884Y-57491274D01*
X158796015Y-57532060D01*
X158804202Y-57583958D01*
X158808035Y-57599130D01*
X158817388Y-57649687D01*
X158819914Y-57701892D01*
X158815547Y-57748987D01*
X158809712Y-57771638D01*
X158789762Y-57804380D01*
X158758242Y-57828772D01*
X158738707Y-57836614D01*
X158729511Y-57837882D01*
X158724284Y-57832802D01*
X158721893Y-57817918D01*
X158721203Y-57789773D01*
X158721173Y-57783166D01*
X158719393Y-57745454D01*
X158712909Y-57716008D01*
X158705253Y-57698789D01*
X158725708Y-57698789D01*
X158730811Y-57707357D01*
X158748165Y-57711259D01*
X158764705Y-57711788D01*
X158790408Y-57710087D01*
X158802116Y-57704302D01*
X158803702Y-57698789D01*
X158798598Y-57690221D01*
X158781245Y-57686318D01*
X158764705Y-57685790D01*
X158739001Y-57687491D01*
X158727294Y-57693275D01*
X158725708Y-57698789D01*
X158705253Y-57698789D01*
X158699543Y-57685947D01*
X158695451Y-57678347D01*
X158676222Y-57648893D01*
X158673770Y-57645935D01*
X158707527Y-57645935D01*
X158710976Y-57659114D01*
X158714153Y-57662680D01*
X158727269Y-57667136D01*
X158749590Y-57668452D01*
X158773976Y-57666948D01*
X158793288Y-57662946D01*
X158799968Y-57658823D01*
X158799842Y-57647023D01*
X158784647Y-57638510D01*
X158756487Y-57634240D01*
X158745206Y-57633927D01*
X158719419Y-57637093D01*
X158707527Y-57645935D01*
X158673770Y-57645935D01*
X158652340Y-57620077D01*
X158627393Y-57595474D01*
X158604967Y-57578656D01*
X158589850Y-57573132D01*
X158572719Y-57580075D01*
X158550235Y-57598574D01*
X158525636Y-57625129D01*
X158502159Y-57656242D01*
X158483041Y-57688414D01*
X158482908Y-57688681D01*
X158467191Y-57723646D01*
X158459531Y-57752476D01*
X158457967Y-57783182D01*
X158458194Y-57789782D01*
X158458898Y-57816943D01*
X158456880Y-57830766D01*
X158450508Y-57835209D01*
X158439796Y-57834474D01*
X158404861Y-57821524D01*
X158379207Y-57796019D01*
X158371051Y-57779251D01*
X158363380Y-57741003D01*
X158362164Y-57699287D01*
X158379069Y-57699287D01*
X158383103Y-57707871D01*
X158397734Y-57710776D01*
X158415225Y-57710120D01*
X158438471Y-57706102D01*
X158453075Y-57699259D01*
X158454945Y-57696622D01*
X158451147Y-57689433D01*
X158432599Y-57686132D01*
X158418788Y-57685790D01*
X158393113Y-57687328D01*
X158381136Y-57692719D01*
X158379069Y-57699287D01*
X158362164Y-57699287D01*
X158361982Y-57693039D01*
X158365203Y-57656922D01*
X158379069Y-57656922D01*
X158386407Y-57664921D01*
X158404632Y-57668330D01*
X158428056Y-57667630D01*
X158450993Y-57663306D01*
X158467757Y-57655840D01*
X158472782Y-57648959D01*
X158471134Y-57638377D01*
X158458100Y-57634253D01*
X158446865Y-57633912D01*
X158410658Y-57636792D01*
X158387395Y-57644634D01*
X158379070Y-57656763D01*
X158379069Y-57656922D01*
X158365203Y-57656922D01*
X158366562Y-57641680D01*
X158376828Y-57593251D01*
X158380169Y-57582577D01*
X158391061Y-57539525D01*
X158391014Y-57523554D01*
X158465728Y-57523554D01*
X158468321Y-57546283D01*
X158474845Y-57572382D01*
X158483419Y-57596329D01*
X158492161Y-57612598D01*
X158497373Y-57616462D01*
X158506154Y-57611040D01*
X158523364Y-57596987D01*
X158540393Y-57581798D01*
X158562330Y-57563110D01*
X158580287Y-57550524D01*
X158588467Y-57547134D01*
X158600214Y-57552383D01*
X158620187Y-57566026D01*
X158640045Y-57581798D01*
X158662152Y-57599921D01*
X158678627Y-57612467D01*
X158685285Y-57616462D01*
X158690786Y-57608924D01*
X158698401Y-57589966D01*
X158706417Y-57565071D01*
X158713117Y-57539723D01*
X158716787Y-57519405D01*
X158717042Y-57514914D01*
X158709893Y-57482707D01*
X158690177Y-57446328D01*
X158660490Y-57409999D01*
X158641512Y-57392131D01*
X158618339Y-57373524D01*
X158599496Y-57360639D01*
X158590156Y-57356538D01*
X158576564Y-57362626D01*
X158555910Y-57378528D01*
X158531992Y-57400550D01*
X158508611Y-57425002D01*
X158489565Y-57448189D01*
X158479785Y-57463803D01*
X158470034Y-57492831D01*
X158465738Y-57522402D01*
X158465728Y-57523554D01*
X158391014Y-57523554D01*
X158390955Y-57503315D01*
X158378588Y-57471521D01*
X158352690Y-57441717D01*
X158311997Y-57411477D01*
X158281081Y-57392761D01*
X158259366Y-57381162D01*
X158243898Y-57374467D01*
X158240894Y-57373814D01*
X158234457Y-57380776D01*
X158221935Y-57399129D01*
X158205587Y-57425073D01*
X158187672Y-57454806D01*
X158170449Y-57484530D01*
X158156179Y-57510445D01*
X158147119Y-57528749D01*
X158145087Y-57534960D01*
X158150454Y-57543634D01*
X158164490Y-57561153D01*
X158183099Y-57582533D01*
X158214672Y-57626003D01*
X158242440Y-57679578D01*
X158263107Y-57736040D01*
X158272214Y-57777710D01*
X158271464Y-57812655D01*
X158259243Y-57837245D01*
X158236825Y-57849463D01*
X158226408Y-57850443D01*
X158201548Y-57842215D01*
X158180193Y-57818867D01*
X158163181Y-57782405D01*
X158160027Y-57769722D01*
X158179751Y-57769722D01*
X158180862Y-57778366D01*
X158186662Y-57779674D01*
X158200855Y-57772994D01*
X158218240Y-57762935D01*
X158236277Y-57750085D01*
X158244600Y-57739640D01*
X158244405Y-57737234D01*
X158234439Y-57735332D01*
X158216894Y-57740924D01*
X158197917Y-57750923D01*
X158183655Y-57762239D01*
X158179751Y-57769722D01*
X158160027Y-57769722D01*
X158151351Y-57734836D01*
X158150167Y-57723283D01*
X158162916Y-57723283D01*
X158168196Y-57732008D01*
X158174868Y-57736789D01*
X158183369Y-57735121D01*
X158198796Y-57725357D01*
X158207245Y-57719388D01*
X158223924Y-57703457D01*
X158225577Y-57692751D01*
X158214291Y-57689742D01*
X158192153Y-57696899D01*
X158189413Y-57698274D01*
X158168405Y-57711725D01*
X158162916Y-57723283D01*
X158150167Y-57723283D01*
X158145542Y-57678167D01*
X158145087Y-57655974D01*
X158144073Y-57619782D01*
X158139632Y-57592038D01*
X158129665Y-57571340D01*
X158112072Y-57556285D01*
X158084754Y-57545471D01*
X158045613Y-57537494D01*
X157992548Y-57530952D01*
X157952132Y-57527038D01*
X157926980Y-57526303D01*
X157909772Y-57528735D01*
X157906001Y-57531051D01*
X157904512Y-57542658D01*
X157867775Y-57542658D01*
X157867775Y-57477806D01*
X157997765Y-57477806D01*
X158127755Y-57477806D01*
X158127797Y-57445309D01*
X158129383Y-57427369D01*
X158135827Y-57411380D01*
X158149738Y-57393200D01*
X158173723Y-57368687D01*
X158179624Y-57362982D01*
X158204523Y-57340004D01*
X158225291Y-57322630D01*
X158238416Y-57313737D01*
X158240396Y-57313152D01*
X158250767Y-57317749D01*
X158272203Y-57330239D01*
X158301501Y-57348677D01*
X158333037Y-57369481D01*
X158366862Y-57391720D01*
X158395905Y-57409818D01*
X158416930Y-57421823D01*
X158426445Y-57425810D01*
X158436162Y-57419723D01*
X158454094Y-57403400D01*
X158477163Y-57379755D01*
X158489960Y-57365762D01*
X158518620Y-57331893D01*
X158535787Y-57306622D01*
X158543147Y-57287290D01*
X158543722Y-57280836D01*
X158544530Y-57276744D01*
X158557552Y-57276744D01*
X158562618Y-57298923D01*
X158577675Y-57310758D01*
X158598270Y-57311974D01*
X158616504Y-57302905D01*
X158621380Y-57296448D01*
X158626294Y-57273366D01*
X158616934Y-57254783D01*
X158606826Y-57248631D01*
X158583370Y-57246833D01*
X158565645Y-57257683D01*
X158557552Y-57276744D01*
X158544530Y-57276744D01*
X158549030Y-57253945D01*
X158565969Y-57239208D01*
X158592627Y-57235159D01*
X158620724Y-57242850D01*
G37*
G36*
X158092461Y-59238451D02*
G01*
X158093091Y-59241456D01*
X158088016Y-59249879D01*
X158074655Y-59267873D01*
X158055805Y-59291685D01*
X158054105Y-59293776D01*
X158030381Y-59324959D01*
X158009718Y-59355844D01*
X157994087Y-59383030D01*
X157985461Y-59403117D01*
X157985347Y-59412346D01*
X157983062Y-59420311D01*
X157975353Y-59428273D01*
X157966367Y-59434145D01*
X157963484Y-59429014D01*
X157965244Y-59409939D01*
X157965456Y-59408357D01*
X157979268Y-59359102D01*
X158005516Y-59310343D01*
X158040507Y-59268919D01*
X158040897Y-59268558D01*
X158065653Y-59247889D01*
X158083532Y-59237495D01*
X158092461Y-59238451D01*
G37*
G36*
X158223081Y-58886029D02*
G01*
X158218748Y-58890362D01*
X158214415Y-58886029D01*
X158218748Y-58881696D01*
X158223081Y-58886029D01*
G37*
G36*
X158193266Y-58805217D02*
G01*
X158199528Y-58822723D01*
X158201619Y-58829354D01*
X158209494Y-58856941D01*
X158210926Y-58868890D01*
X158205866Y-58865669D01*
X158198921Y-58855421D01*
X158191052Y-58833798D01*
X158188997Y-58814652D01*
X158190109Y-58802938D01*
X158193266Y-58805217D01*
G37*
G36*
X158188417Y-58773371D02*
G01*
X158184084Y-58777704D01*
X158179751Y-58773371D01*
X158184084Y-58769038D01*
X158188417Y-58773371D01*
G37*
G36*
X158431592Y-58330329D02*
G01*
X158448138Y-58343965D01*
X158448654Y-58344885D01*
X158456068Y-58364412D01*
X158453021Y-58371615D01*
X158441880Y-58364729D01*
X158434183Y-58355676D01*
X158421378Y-58339967D01*
X158412431Y-58336827D01*
X158400891Y-58344893D01*
X158397499Y-58347914D01*
X158383380Y-58356796D01*
X158378943Y-58353181D01*
X158386720Y-58340359D01*
X158389468Y-58337472D01*
X158409360Y-58327830D01*
X158431592Y-58330329D01*
G37*
G36*
X158791613Y-58336441D02*
G01*
X158795036Y-58340072D01*
X158800522Y-58350867D01*
X158796608Y-58353071D01*
X158783804Y-58346721D01*
X158782037Y-58344405D01*
X158769208Y-58335882D01*
X158753417Y-58341870D01*
X158739331Y-58359570D01*
X158730485Y-58374357D01*
X158726797Y-58374514D01*
X158726055Y-58365636D01*
X158732682Y-58343649D01*
X158749686Y-58330020D01*
X158771265Y-58326901D01*
X158791613Y-58336441D01*
G37*
G36*
X157596411Y-58462660D02*
G01*
X157594797Y-58465728D01*
X157586632Y-58474004D01*
X157585108Y-58474394D01*
X157584517Y-58468797D01*
X157586131Y-58465728D01*
X157594296Y-58457452D01*
X157595820Y-58457062D01*
X157596411Y-58462660D01*
G37*
G36*
X158620147Y-57638891D02*
G01*
X158653321Y-57684820D01*
X158675709Y-57733074D01*
X158687488Y-57781215D01*
X158688841Y-57826805D01*
X158679946Y-57867408D01*
X158660984Y-57900588D01*
X158632135Y-57923906D01*
X158598313Y-57934388D01*
X158572035Y-57935074D01*
X158551074Y-57926511D01*
X158537378Y-57916062D01*
X158516560Y-57892729D01*
X158501212Y-57865566D01*
X158499914Y-57861995D01*
X158498798Y-57854604D01*
X158552388Y-57854604D01*
X158557362Y-57865151D01*
X158568389Y-57879808D01*
X158579626Y-57891349D01*
X158584062Y-57893773D01*
X158585308Y-57885714D01*
X158586299Y-57863962D01*
X158586913Y-57832155D01*
X158587052Y-57805669D01*
X158586554Y-57769693D01*
X158585209Y-57741925D01*
X158583240Y-57725707D01*
X158581535Y-57723082D01*
X158579190Y-57733692D01*
X158577634Y-57757325D01*
X158577096Y-57789681D01*
X158577225Y-57804687D01*
X158577550Y-57840592D01*
X158576793Y-57861667D01*
X158574456Y-57870407D01*
X158570044Y-57869303D01*
X158565410Y-57863953D01*
X158555760Y-57853955D01*
X158552388Y-57854604D01*
X158498798Y-57854604D01*
X158493132Y-57817091D01*
X158495065Y-57798448D01*
X158553757Y-57798448D01*
X158555118Y-57810750D01*
X158558128Y-57809280D01*
X158559272Y-57791538D01*
X158558128Y-57787615D01*
X158554965Y-57786526D01*
X158553757Y-57798448D01*
X158495065Y-57798448D01*
X158498428Y-57766023D01*
X158500433Y-57759451D01*
X158561054Y-57759451D01*
X158565387Y-57763784D01*
X158569720Y-57759451D01*
X158565387Y-57755118D01*
X158561054Y-57759451D01*
X158500433Y-57759451D01*
X158514432Y-57713561D01*
X158539776Y-57664474D01*
X158566437Y-57630225D01*
X158590355Y-57604991D01*
X158620147Y-57638891D01*
G37*
G36*
X158633300Y-58021766D02*
G01*
X158651443Y-58043238D01*
X158659199Y-58071635D01*
X158653303Y-58104405D01*
X158652922Y-58105332D01*
X158635749Y-58129289D01*
X158610922Y-58144782D01*
X158584577Y-58148380D01*
X158578386Y-58146991D01*
X158550613Y-58130751D01*
X158532775Y-58105624D01*
X158525987Y-58076296D01*
X158526087Y-58075759D01*
X158540834Y-58075759D01*
X158547933Y-58103112D01*
X158566080Y-58121439D01*
X158590544Y-58128384D01*
X158616597Y-58121594D01*
X158623518Y-58116922D01*
X158640676Y-58094409D01*
X158641377Y-58068397D01*
X158629905Y-58046790D01*
X158607016Y-58028402D01*
X158582258Y-58024323D01*
X158560077Y-58033108D01*
X158544920Y-58053309D01*
X158540834Y-58075759D01*
X158526087Y-58075759D01*
X158531364Y-58047452D01*
X158549224Y-58024392D01*
X158578924Y-58009793D01*
X158608038Y-58009768D01*
X158633300Y-58021766D01*
G37*
D12*
%TO.C,D1*%
X132510000Y-64500000D02*
X133530000Y-64500000D01*
X137950000Y-65970000D02*
X137950000Y-63030000D01*
X138070000Y-65970000D02*
X138070000Y-63030000D01*
X138190000Y-65970000D02*
X138190000Y-63030000D01*
X139990000Y-64500000D02*
X138970000Y-64500000D01*
X138970000Y-65970000D02*
X133530000Y-65970000D01*
X133530000Y-63030000D01*
X138970000Y-63030000D01*
X138970000Y-65970000D01*
%TO.C,R1*%
X131480000Y-81130000D02*
X138020000Y-81130000D01*
X131480000Y-81460000D02*
X131480000Y-81130000D01*
X131480000Y-83540000D02*
X131480000Y-83870000D01*
X131480000Y-83870000D02*
X138020000Y-83870000D01*
X138020000Y-81130000D02*
X138020000Y-81460000D01*
X138020000Y-83870000D02*
X138020000Y-83540000D01*
%TO.C,C3*%
X149630000Y-72130000D02*
X152370000Y-72130000D01*
X149630000Y-77370000D02*
X149630000Y-72130000D01*
X152370000Y-72130000D02*
X152370000Y-77370000D01*
X152370000Y-77370000D02*
X149630000Y-77370000D01*
%TO.C,C1*%
X142130000Y-81380000D02*
X147370000Y-81380000D01*
X142130000Y-84120000D02*
X142130000Y-81380000D01*
X147370000Y-81380000D02*
X147370000Y-84120000D01*
X147370000Y-84120000D02*
X142130000Y-84120000D01*
%TO.C,D2*%
X150340000Y-64250000D02*
X151360000Y-64250000D01*
X155780000Y-65720000D02*
X155780000Y-62780000D01*
X155900000Y-65720000D02*
X155900000Y-62780000D01*
X156020000Y-65720000D02*
X156020000Y-62780000D01*
X157820000Y-64250000D02*
X156800000Y-64250000D01*
X156800000Y-65720000D02*
X151360000Y-65720000D01*
X151360000Y-62780000D01*
X156800000Y-62780000D01*
X156800000Y-65720000D01*
%TO.C,J2*%
X154870000Y-68240000D02*
X156200000Y-68240000D01*
X154870000Y-69350000D02*
X154870000Y-68240000D01*
X154870000Y-70810000D02*
X160070000Y-70810000D01*
X154870000Y-79440000D02*
X154870000Y-70810000D01*
X154870000Y-79440000D02*
X160070000Y-79440000D01*
X154990000Y-79440000D02*
X154990000Y-70810000D01*
X155108095Y-79440000D02*
X155108095Y-70810000D01*
X155226190Y-79440000D02*
X155226190Y-70810000D01*
X155344285Y-79440000D02*
X155344285Y-70810000D01*
X155462380Y-79440000D02*
X155462380Y-70810000D01*
X155580475Y-79440000D02*
X155580475Y-70810000D01*
X155698570Y-79440000D02*
X155698570Y-70810000D01*
X155816665Y-79440000D02*
X155816665Y-70810000D01*
X155840000Y-70810000D02*
X155840000Y-70460000D01*
X155934760Y-79440000D02*
X155934760Y-70810000D01*
X156052855Y-79440000D02*
X156052855Y-70810000D01*
X156170950Y-79440000D02*
X156170950Y-70810000D01*
X156289045Y-79440000D02*
X156289045Y-70810000D01*
X156407140Y-79440000D02*
X156407140Y-70810000D01*
X156525235Y-79440000D02*
X156525235Y-70810000D01*
X156560000Y-70810000D02*
X156560000Y-70460000D01*
X156643330Y-79440000D02*
X156643330Y-70810000D01*
X156761425Y-79440000D02*
X156761425Y-70810000D01*
X156879520Y-79440000D02*
X156879520Y-70810000D01*
X156997615Y-79440000D02*
X156997615Y-70810000D01*
X157115710Y-79440000D02*
X157115710Y-70810000D01*
X157233805Y-79440000D02*
X157233805Y-70810000D01*
X157351900Y-79440000D02*
X157351900Y-70810000D01*
X157470000Y-79440000D02*
X157470000Y-70810000D01*
X158380000Y-70810000D02*
X158380000Y-70400000D01*
X159100000Y-70810000D02*
X159100000Y-70400000D01*
X160070000Y-79440000D02*
X160070000Y-70810000D01*
%TO.C,U1*%
X141240000Y-68350000D02*
X145860000Y-68350000D01*
X141240000Y-71610000D02*
X142620000Y-71610000D01*
X141240000Y-75310000D02*
X142620000Y-75310000D01*
X141240000Y-78570000D02*
X141240000Y-68350000D01*
X142620000Y-78570000D02*
X142620000Y-68350000D01*
X145860000Y-68350000D02*
X145860000Y-78570000D01*
X145860000Y-78570000D02*
X141240000Y-78570000D01*
%TO.C,R2*%
X152730000Y-81130000D02*
X159270000Y-81130000D01*
X152730000Y-81460000D02*
X152730000Y-81130000D01*
X152730000Y-83540000D02*
X152730000Y-83870000D01*
X152730000Y-83870000D02*
X159270000Y-83870000D01*
X159270000Y-81130000D02*
X159270000Y-81460000D01*
X159270000Y-83870000D02*
X159270000Y-83540000D01*
%TO.C,J1*%
X130370000Y-68490000D02*
X131700000Y-68490000D01*
X130370000Y-69600000D02*
X130370000Y-68490000D01*
X130370000Y-71060000D02*
X135570000Y-71060000D01*
X130370000Y-79690000D02*
X130370000Y-71060000D01*
X130370000Y-79690000D02*
X135570000Y-79690000D01*
X130490000Y-79690000D02*
X130490000Y-71060000D01*
X130608095Y-79690000D02*
X130608095Y-71060000D01*
X130726190Y-79690000D02*
X130726190Y-71060000D01*
X130844285Y-79690000D02*
X130844285Y-71060000D01*
X130962380Y-79690000D02*
X130962380Y-71060000D01*
X131080475Y-79690000D02*
X131080475Y-71060000D01*
X131198570Y-79690000D02*
X131198570Y-71060000D01*
X131316665Y-79690000D02*
X131316665Y-71060000D01*
X131340000Y-71060000D02*
X131340000Y-70710000D01*
X131434760Y-79690000D02*
X131434760Y-71060000D01*
X131552855Y-79690000D02*
X131552855Y-71060000D01*
X131670950Y-79690000D02*
X131670950Y-71060000D01*
X131789045Y-79690000D02*
X131789045Y-71060000D01*
X131907140Y-79690000D02*
X131907140Y-71060000D01*
X132025235Y-79690000D02*
X132025235Y-71060000D01*
X132060000Y-71060000D02*
X132060000Y-70710000D01*
X132143330Y-79690000D02*
X132143330Y-71060000D01*
X132261425Y-79690000D02*
X132261425Y-71060000D01*
X132379520Y-79690000D02*
X132379520Y-71060000D01*
X132497615Y-79690000D02*
X132497615Y-71060000D01*
X132615710Y-79690000D02*
X132615710Y-71060000D01*
X132733805Y-79690000D02*
X132733805Y-71060000D01*
X132851900Y-79690000D02*
X132851900Y-71060000D01*
X132970000Y-79690000D02*
X132970000Y-71060000D01*
X133880000Y-71060000D02*
X133880000Y-70650000D01*
X134600000Y-71060000D02*
X134600000Y-70650000D01*
X135570000Y-79690000D02*
X135570000Y-71060000D01*
%TO.C,C2*%
X142630000Y-59380000D02*
X147870000Y-59380000D01*
X142630000Y-62120000D02*
X142630000Y-59380000D01*
X147870000Y-59380000D02*
X147870000Y-62120000D01*
X147870000Y-62120000D02*
X142630000Y-62120000D01*
%TD*%
M02*
